<svg width="457" height="512" viewBox="0 0 457 512" fill="none" xmlns="http://www.w3.org/2000/svg">
<g clip-path="url(#clip0_53_2)">
<mask id="mask0_53_2" style="mask-type:luminance" maskUnits="userSpaceOnUse" x="0" y="0" width="456" height="512">
<path d="M455.781 0H0.815186V511.455H455.781V0Z" fill="white"/>
</mask>
<g mask="url(#mask0_53_2)">
<path d="M258.738 394.085C367.562 394.085 455.781 305.866 455.781 197.042C455.781 88.2191 367.562 0 258.738 0C149.914 0 61.6956 88.2191 61.6956 197.042C61.6956 305.866 149.914 394.085 258.738 394.085Z" fill="#F2F2F2"/>
<path d="M387.502 88.1167H26.5476C25.7736 88.1005 25.1595 87.4597 25.1761 86.6855C25.1922 85.9345 25.7969 85.3302 26.5476 85.3139H387.502C388.276 85.331 388.89 85.9718 388.874 86.7452C388.858 87.4961 388.253 88.1012 387.502 88.1167Z" fill="#CACACA"/>
<path d="M264.49 135.349H164.708C157.212 135.349 151.137 141.424 151.137 148.919C151.137 156.414 157.212 162.489 164.708 162.489H264.49C271.984 162.489 278.06 156.414 278.06 148.919C278.06 141.424 271.984 135.349 264.49 135.349Z" fill="white"/>
<path d="M100.248 189.63H328.949C336.444 189.63 342.52 195.706 342.52 203.201C342.52 210.696 336.444 216.771 328.949 216.771H100.248C92.753 216.771 86.6772 210.696 86.6772 203.201C86.6772 195.706 92.753 189.63 100.248 189.63Z" fill="white"/>
<path d="M100.248 243.912H328.949C336.444 243.912 342.52 249.988 342.52 257.482C342.52 264.978 336.444 271.054 328.949 271.054H100.248C92.753 271.054 86.6772 264.978 86.6772 257.482C86.6772 249.988 92.753 243.912 100.248 243.912Z" fill="white"/>
<path d="M71.9061 510.262L71.3679 510.209C53.106 508.325 36.5974 498.503 26.2278 483.354C23.3874 479.132 21.09 474.57 19.3895 469.775L19.226 469.317L19.7099 469.278C25.487 468.814 31.4217 467.833 34.0582 467.367L17.0576 461.607L16.9525 461.102C15.9447 456.367 17.9193 451.495 21.9395 448.797C25.9706 445.97 31.3163 445.879 35.4409 448.569C37.2918 449.751 39.2278 450.922 41.0999 452.055C47.5334 455.946 54.186 459.97 59.1738 465.476C66.737 473.993 70.0521 485.468 68.1957 496.704L71.9061 510.262Z" fill="#F2F2F2"/>
<path d="M133.703 501.807L142.081 501.807L146.067 469.487L133.7 469.488L133.703 501.807Z" fill="#A0616A"/>
<path d="M133.407 510.548L159.174 510.547V510.221C159.173 504.682 154.683 500.193 149.145 500.192L144.437 496.621L135.656 500.193H133.407V510.548Z" fill="#2F2E41"/>
<path d="M66.5537 478.6L73.2555 483.627L95.84 460.168L85.9476 452.747L66.5537 478.6Z" fill="#A0616A"/>
<path d="M61.0718 485.415L81.6825 500.877L81.8788 500.617C85.2021 496.185 84.3053 489.899 79.875 486.575L78.2523 480.894L69.085 478.481L67.2858 477.131L61.0718 485.415Z" fill="#2F2E41"/>
<path d="M94.4066 350.141C94.4066 350.141 94.8689 362.757 95.4523 372.876C95.5477 374.535 91.6604 376.338 91.7612 378.143C91.8279 379.341 92.5587 380.505 92.6262 381.754C92.6976 383.072 91.6891 384.239 91.7612 385.602C91.831 386.933 92.9823 388.461 93.0513 389.824C93.7984 404.492 96.5073 422.054 93.7953 426.963C92.4586 429.382 75.4209 462.899 75.4209 462.899C75.4209 462.899 84.9136 477.138 87.6257 472.392C91.2081 466.123 118.816 436.794 118.816 431.194C118.816 425.6 125.203 383.676 125.203 383.676L129.657 408.486L131.699 413.402L131.057 416.288L132.377 420.182L132.448 424.036L133.733 431.194C133.733 431.194 129.868 486.956 132.045 488.509C134.228 490.069 144.799 492.869 146.046 490.069C147.288 487.268 155.364 431.872 155.364 431.872C155.364 431.872 156.666 406.485 158.076 382.889C158.158 381.52 159.12 379.865 159.195 378.516C159.283 376.95 158.673 374.916 158.754 373.397C158.843 371.655 159.615 370.427 159.69 368.759C160.266 355.869 157.031 340.173 156 338.627C152.888 333.962 150.087 330.233 150.087 330.233C150.087 330.233 108.169 316.46 96.9681 330.455L94.4066 350.141Z" fill="#2F2E41"/>
<path d="M136.214 220.396L119.597 217.072L111.842 227.596C97.3721 241.825 97.1541 254.382 99.7374 274.51V302.76L97.8678 321.697C97.8678 321.697 91.2491 335.541 98.0757 338.763C104.902 341.987 149.74 341.712 154.021 340.426C158.302 339.139 154.591 337.559 153.467 331.563C151.355 320.299 152.767 325.732 152.913 322.147C154.996 270.703 150.143 249.584 149.65 244.032L141.199 228.704L136.214 220.396Z" fill="#3F3D56"/>
<path d="M223.798 261.873C222.066 265.155 218.002 266.411 214.721 264.679C214.371 264.495 214.037 264.28 213.725 264.036L177.839 286.822L177.942 274.416L212.804 254.186C215.287 251.401 219.557 251.158 222.341 253.641C224.671 255.718 225.273 259.122 223.798 261.873Z" fill="#A0616A"/>
<path d="M123.094 234.763L119.008 234.33C115.233 233.938 111.529 235.556 109.25 238.59C108.376 239.741 107.749 241.059 107.407 242.462L107.405 242.473C106.38 246.698 107.988 251.124 111.484 253.707L125.595 264.111C135.498 277.492 154.11 286.369 175.94 293.582L209.874 272.507L197.872 257.97L174.597 270.445L139.999 243.662L139.979 243.646L126.811 235.162L123.094 234.763Z" fill="#3F3D56"/>
<path d="M130.6 212.236C141.302 212.236 149.978 203.56 149.978 192.857C149.978 182.155 141.302 173.479 130.6 173.479C119.897 173.479 111.221 182.155 111.221 192.857C111.221 203.56 119.897 212.236 130.6 212.236Z" fill="#A0616A"/>
<path d="M131.047 212.24C130.891 212.245 130.734 212.249 130.578 212.253C130.511 212.426 130.439 212.599 130.355 212.768L131.047 212.24Z" fill="#2F2E41"/>
<path d="M136.365 193.395C136.396 193.586 136.442 193.774 136.504 193.957C136.479 193.765 136.431 193.576 136.365 193.395Z" fill="#2F2E41"/>
<path d="M150.225 174.308C149.427 176.785 148.716 173.643 146.091 174.209C142.935 174.888 139.262 174.655 136.677 172.72C132.826 169.894 127.834 169.133 123.316 170.684C118.893 172.248 111.483 173.352 110.33 177.899C109.93 179.48 109.771 181.196 108.8 182.506C107.95 183.651 106.61 184.304 105.49 185.187C101.706 188.163 104.598 196.62 106.389 201.09C108.18 205.559 112.287 208.814 116.804 210.482C121.174 212.095 125.916 212.379 130.578 212.253C131.388 210.15 131.038 207.721 130.369 205.542C129.645 203.182 128.572 200.904 128.27 198.454C127.967 196.004 128.632 193.221 130.686 191.853C132.574 190.594 135.647 191.361 136.365 193.395C135.946 190.852 138.522 188.39 141.179 187.958C144.031 187.493 146.882 188.523 149.726 189.035C152.57 189.548 151.561 177.575 150.225 174.308Z" fill="#2F2E41"/>
<path d="M258.602 224.913C260.409 203.086 244.18 183.927 222.352 182.121C200.525 180.314 181.366 196.544 179.56 218.371C177.753 240.199 193.983 259.357 215.81 261.163C237.638 262.97 256.796 246.741 258.602 224.913Z" fill="#DC3545"/>
<path d="M229.499 205.119L219.081 215.536L208.664 205.119C206.978 203.432 204.244 203.432 202.557 205.119C200.872 206.805 200.872 209.539 202.557 211.225L212.975 221.642L202.557 232.059C200.873 233.747 200.875 236.481 202.563 238.166C204.249 239.848 206.978 239.848 208.664 238.166L219.081 227.748L229.499 238.166C231.187 239.85 233.92 239.848 235.605 238.16C237.287 236.474 237.287 233.745 235.605 232.059L225.188 221.642L235.605 211.225C237.291 209.539 237.291 206.805 235.605 205.119C233.919 203.432 231.184 203.432 229.499 205.119Z" fill="white"/>
<path d="M203.454 188.31C204.623 191.832 202.716 195.634 199.194 196.803C198.819 196.928 198.433 197.019 198.042 197.076L189.639 238.747L180.759 230.083L190.295 190.922C190.006 187.203 192.785 183.952 196.505 183.663C199.616 183.42 202.49 185.342 203.454 188.31Z" fill="#A0616A"/>
<path d="M114.173 242.211L111.032 244.859C108.136 247.312 106.739 251.104 107.35 254.85C107.576 256.277 108.093 257.642 108.869 258.86L108.875 258.87C111.214 262.534 115.521 264.439 119.805 263.704L137.082 260.724C153.594 262.841 172.884 255.557 193.203 244.797L201.487 205.72L182.688 204.317L175.576 229.748L132.298 236.173L132.273 236.176L117.034 239.805L114.173 242.211Z" fill="#3F3D56"/>
<path d="M212.548 511.216L1.73589 511.455C1.22575 511.454 0.813538 511.039 0.81519 510.528C0.816827 510.021 1.22807 509.61 1.73589 509.608L212.548 509.369C213.058 509.371 213.47 509.786 213.469 510.296C213.467 510.804 213.055 511.215 212.548 511.216Z" fill="#CACACA"/>
<path d="M44.8603 70.3639C48.4834 70.3639 51.4206 67.3613 51.4206 63.6573C51.4206 59.9535 48.4834 56.9509 44.8603 56.9509C41.2371 56.9509 38.3 59.9535 38.3 63.6573C38.3 67.3613 41.2371 70.3639 44.8603 70.3639Z" fill="#3F3D56"/>
<path d="M67.5229 70.3639C71.1461 70.3639 74.0832 67.3613 74.0832 63.6573C74.0832 59.9535 71.1461 56.9509 67.5229 56.9509C63.8998 56.9509 60.9626 59.9535 60.9626 63.6573C60.9626 67.3613 63.8998 70.3639 67.5229 70.3639Z" fill="#3F3D56"/>
<path d="M90.1855 70.3639C93.8091 70.3639 96.7461 67.3613 96.7461 63.6573C96.7461 59.9535 93.8091 56.9509 90.1855 56.9509C86.5628 56.9509 83.6257 59.9535 83.6257 63.6573C83.6257 67.3613 86.5628 70.3639 90.1855 70.3639Z" fill="#3F3D56"/>
<path d="M116.027 68.958C115.826 68.958 115.625 68.8799 115.473 68.7246L111.046 64.1996C110.751 63.8982 110.751 63.4163 111.046 63.1148L115.473 58.5902C115.773 58.2841 116.265 58.2792 116.57 58.578C116.876 58.8777 116.882 59.369 116.582 59.675L112.686 63.6572L116.582 67.6398C116.882 67.9458 116.876 68.4371 116.57 68.7368C116.419 68.8845 116.223 68.958 116.027 68.958Z" fill="#3F3D56"/>
<path d="M123.466 68.9579C123.27 68.9579 123.074 68.8845 122.923 68.7368C122.617 68.4371 122.612 67.9462 122.911 67.6398L126.807 63.6572L122.911 59.675C122.612 59.369 122.617 58.8777 122.923 58.578C123.229 58.278 123.721 58.2837 124.02 58.5902L128.447 63.1148C128.742 63.4163 128.742 63.8981 128.447 64.1996L124.02 68.7246C123.868 68.8799 123.667 68.9579 123.466 68.9579Z" fill="#3F3D56"/>
<path d="M355.037 57.7274H346.806C345.868 57.7274 345.107 58.4875 345.107 59.4262V67.6648C345.107 68.6035 345.868 69.3637 346.806 69.3637H355.037C355.976 69.3637 356.744 68.6035 356.744 67.6648V59.4262C356.744 58.4875 355.976 57.7274 355.037 57.7274Z" fill="#3F3D56"/>
<path d="M334.867 57.7274H326.636C325.698 57.7274 324.938 58.4875 324.938 59.4262V67.6648C324.938 68.6035 325.698 69.3637 326.636 69.3637H334.867C335.806 69.3637 336.574 68.6035 336.574 67.6648V59.4262C336.574 58.4875 335.806 57.7274 334.867 57.7274Z" fill="#3F3D56"/>
<path d="M374.043 58.1152H365.812C364.874 58.1152 364.113 58.8754 364.113 59.8141V68.0527C364.113 68.9914 364.874 69.7516 365.812 69.7516H374.043C374.982 69.7516 375.75 68.9914 375.75 68.0527V59.8141C375.75 58.8754 374.982 58.1152 374.043 58.1152Z" fill="#3F3D56"/>
<path d="M249.982 61.2492H184.19C183.042 61.2492 182.119 62.1801 182.119 63.3206C182.119 64.4609 183.042 65.3919 184.19 65.3919H249.982C251.123 65.3919 252.054 64.4609 252.054 63.3206C252.054 62.1802 251.123 61.2492 249.982 61.2492Z" fill="#3F3D56"/>
</g>
</g>
<defs>
<clipPath id="clip0_53_2">
<rect width="455.37" height="512" fill="white" transform="translate(0.815186)"/>
</clipPath>
</defs>
</svg>
