<svg width="360" height="122" viewBox="0 0 360 122" fill="none" xmlns="http://www.w3.org/2000/svg">
<path d="M354 6H84V92H354V6Z" fill="url(#paint0_linear_4320_23)"/>
<path d="M79 6H2V92H79V6Z" fill="url(#paint1_linear_4320_23)"/>
<path d="M0 60.9958V121.211H9.24802H18.4773L21.6663 120.555C23.4296 120.18 25.8682 119.673 27.1063 119.41C28.3444 119.148 30.1265 118.773 31.0456 118.585C31.9836 118.379 33.747 118.004 34.9849 117.741C36.2231 117.459 38.2114 117.047 39.3933 116.803C40.5752 116.559 42.7698 116.09 44.2705 115.771C45.7712 115.452 48.1724 114.946 49.6167 114.646C51.061 114.346 53.256 113.877 54.494 113.614C55.7322 113.351 58.5645 112.751 60.7782 112.301C66.143 111.194 68.7883 110.65 71.9397 109.956C73.384 109.637 75.1849 109.262 75.9539 109.112C76.7229 108.962 77.4733 108.793 77.661 108.737C77.8298 108.68 78.1299 108.755 78.3363 108.905C78.6738 109.168 78.6928 109.506 78.7866 115.152L78.8803 121.117L108.182 121.174L137.482 121.211L139.227 120.573C141.14 119.879 144.254 118.66 147.162 117.478C149.92 116.371 158.549 112.976 161.794 111.719C163.351 111.138 165.002 110.5 165.47 110.312C166.896 109.768 166.84 109.6 166.952 115.715L167.046 121.117H180.928C195.672 121.117 195.503 121.117 200.437 120.18C202.313 119.804 204.807 119.392 207.002 119.073C207.94 118.923 211.992 118.247 216.007 117.572C220.039 116.878 224.035 116.203 224.917 116.053C228.875 115.396 230 115.208 231.576 114.927C232.514 114.758 233.996 114.496 234.915 114.346C236.791 114.045 239.267 113.633 241.706 113.22C242.644 113.07 244.163 112.807 245.082 112.657C246.02 112.507 247.315 112.301 247.99 112.188C249.96 111.907 261.44 109.975 263.184 109.656C264.066 109.487 265.548 109.243 266.467 109.112C267.405 108.962 268.812 108.755 269.619 108.643C270.744 108.474 271.138 108.474 271.345 108.643C271.588 108.849 271.626 109.825 271.626 114.814C271.626 119.185 271.682 120.817 271.851 120.986C272.133 121.267 293.555 121.305 294.437 121.042C294.737 120.949 295.862 120.686 296.95 120.461C298.038 120.236 299.858 119.86 300.983 119.617C302.128 119.373 303.853 118.998 304.829 118.791C309.537 117.778 313.139 117.009 314.677 116.69C316.816 116.24 322.087 115.133 324.901 114.552C327.959 113.895 332.836 112.882 337.093 112.001C343.303 110.706 345.74 110.2 347.598 109.768C348.575 109.562 350.019 109.262 350.786 109.112C351.556 108.962 353 108.68 353.978 108.455C354.951 108.23 356.602 107.893 357.636 107.667C358.666 107.461 359.624 107.199 359.754 107.086C360.074 106.823 360.09 1.34306 359.754 1.00541C359.587 0.83658 319.33 0.780304 179.765 0.780304H0V60.9958ZM65.4867 7.68352C67.0811 8.73401 75.1285 16.5376 77.5296 19.3702L78.4114 20.4207V37.4348C78.4114 50.9034 78.355 54.43 78.1863 54.43C77.7924 54.449 73.2527 55.068 68.188 55.8184C67.1562 55.9684 65.6368 56.1748 64.8114 56.3059C63.3107 56.5123 61.0033 56.8502 57.8705 57.3377C55.3757 57.7316 51.5112 58.2758 48.0223 58.7447C47.2533 58.8571 46.0714 59.0262 45.4147 59.1386L44.2329 59.3637L44.3269 60.4141C44.4956 62.0462 44.9832 65.3664 45.1333 65.7416C45.2273 65.9854 45.3774 66.0604 45.6585 65.9854C46.1087 65.873 47.6284 65.6479 53.3684 64.8412C54.4002 64.6911 56.126 64.4474 57.2139 64.2786C61.5849 63.6033 63.986 63.2468 68.5631 62.6088C73.2153 61.9525 74.622 61.7648 75.7852 61.5774C76.4605 61.4646 77.3232 61.3709 77.7174 61.3709H78.4114V76.3779V91.3849H40.894H3.37657V68.4055V45.4449L3.99559 45.3508C4.3145 45.2948 4.93352 45.2008 5.34621 45.1447C8.34761 44.7132 11.7242 44.2253 15.007 43.7377C20.522 42.9124 26.2622 42.0683 28.3256 41.7682C35.7729 40.7177 37.2546 40.4926 37.3673 40.3799C37.4424 40.3235 37.4237 39.8923 37.3297 39.4231C37.2359 38.9542 37.0295 37.6036 36.8421 36.4217C36.6543 35.2401 36.4669 34.2083 36.4106 34.1333C36.3542 34.0583 35.4538 34.1146 34.4223 34.2647C30.0139 34.8836 28.1568 35.1274 23.7297 35.7654C21.1598 36.1406 18.2335 36.5718 17.258 36.7218C16.2826 36.8532 14.5755 37.097 13.4875 37.2471C12.3995 37.4161 10.6362 37.6599 9.54816 37.8287C8.47893 37.9974 6.92195 38.2038 6.09656 38.2976C5.27118 38.4103 4.3145 38.5227 3.99559 38.579L3.37657 38.6917V23.0094V7.34586H34.1972C63.1793 7.34586 65.0365 7.3646 65.4867 7.68352ZM122.494 37.9037C122.494 65.5916 122.513 68.4615 122.794 68.5743C123.264 68.7617 128.741 68.7057 129.041 68.5179C129.285 68.3678 129.322 64.1659 129.322 37.885L129.341 7.43964L147.969 7.38338L166.577 7.34586V42.7436V78.16L165.489 79.3606C163.332 81.7991 154.947 90.0156 153.465 91.1411C153.24 91.3285 147.05 91.3662 125.983 91.3849H98.8209L98.0328 90.7846C97.6203 90.4468 97.1701 90.0906 97.0574 89.9779C96.945 89.8842 95.8568 88.8523 94.6376 87.7268C92.5553 85.7759 91.2987 84.538 87.3028 80.3547C85.7648 78.7226 85.6147 78.5162 85.502 77.6348C85.3333 76.4529 85.0708 8.05869 85.2209 7.646C85.3333 7.38338 87.1154 7.34586 103.923 7.34586H122.494V37.9037ZM213.737 10.7599C214.993 12.5795 216.419 14.643 216.907 15.3558C217.413 16.0499 218.633 17.832 219.608 19.2951L221.409 21.9777H222.403H223.379L226.361 17.6631C227.993 15.2808 230.15 12.1481 231.164 10.6661C232.158 9.20296 233.115 7.85233 233.265 7.66474C233.527 7.3646 234.615 7.34586 252.436 7.38338L271.345 7.43964L271.401 27.2301C271.438 38.1101 271.401 57.0002 271.326 69.1932L271.213 91.3849H254.293H237.372L237.56 90.1093C237.654 89.4153 237.804 88.815 237.879 88.7586C237.935 88.7023 238.067 88.1397 238.142 87.483C238.217 86.8451 238.348 86.2825 238.423 86.2261C238.498 86.1698 238.629 85.6072 238.704 84.9692C238.779 84.3129 238.911 83.6936 238.986 83.5999C239.061 83.4875 239.192 82.9433 239.267 82.3807C239.342 81.8177 239.455 81.2552 239.53 81.1614C239.586 81.0487 239.736 80.4298 239.868 79.7545C240.168 78.141 240.58 76.1151 241.049 73.9391C241.274 72.9636 241.556 71.613 241.706 70.9377C241.856 70.2624 242.081 69.1745 242.231 68.4992C242.644 66.6797 243.056 64.8225 243.375 63.2468C243.525 62.4778 243.844 61.0331 244.051 60.0576C244.257 59.0822 244.576 57.6379 244.726 56.8688C244.989 55.5932 245.27 54.2426 245.739 52.0853C245.833 51.6728 245.908 51.2786 245.926 51.2226C245.926 51.0161 245.007 50.7347 243.019 50.3031C241.987 50.078 240.918 49.8156 240.637 49.7028C239.943 49.4404 239.605 49.6091 239.511 50.2471C239.398 50.8474 238.554 54.6928 238.142 56.4C237.992 57.0189 237.729 58.1631 237.56 58.9321C237.41 59.7015 237.147 60.8457 236.997 61.4646C236.866 62.0836 236.603 63.2281 236.453 63.9971C236.285 64.7662 236.078 65.6479 235.984 65.9667C235.891 66.2669 235.759 66.8671 235.703 67.28C235.628 67.6925 235.497 68.2928 235.403 68.6116C235.291 68.9494 235.14 69.6248 235.046 70.1123C234.878 71.0317 234.596 72.326 234.052 74.6894C233.902 75.3647 233.677 76.3779 233.546 76.9405C233.433 77.5034 233.208 78.3852 233.058 78.8914C232.908 79.3793 232.795 80.0359 232.795 80.3361C232.795 80.6172 232.72 80.8987 232.627 80.955C232.533 81.03 232.402 81.5176 232.326 82.0619C232.27 82.5871 232.12 83.2811 232.026 83.5999C231.858 84.1438 231.501 85.9447 231.051 88.4208C230.919 89.0961 230.769 89.7341 230.694 89.8091C230.601 89.8841 230.544 90.1279 230.544 90.3717C230.544 91.4412 230.995 91.3849 222.478 91.3849C215.162 91.3849 214.618 91.3662 214.525 91.047C214.487 90.8783 214.374 90.2593 214.318 89.6964C214.243 89.1338 214.112 88.5709 214.037 88.4772C213.962 88.3648 213.831 87.8205 213.756 87.2579C213.68 86.695 213.549 86.1324 213.474 86.0387C213.399 85.926 213.268 85.3257 213.193 84.6691C213.118 84.0314 213.005 83.4685 212.911 83.4125C212.836 83.3561 212.705 82.7745 212.63 82.0992C212.574 81.4239 212.442 80.88 212.349 80.88C212.273 80.88 212.142 80.3361 212.067 79.6607C212.011 78.9854 211.88 78.4038 211.786 78.3475C211.711 78.3101 211.58 77.7849 211.504 77.2033C211.429 76.603 211.298 76.0027 211.223 75.834C211.129 75.6649 210.96 75.0646 210.867 74.502C210.773 73.9391 210.548 72.8699 210.379 72.1573C210.21 71.4256 209.966 70.3001 209.816 69.6248C209.347 67.5051 209.028 66.0044 208.691 64.5597C208.503 63.7907 208.259 62.6465 208.128 62.0276C207.997 61.4083 207.734 60.2641 207.565 59.4951C207.378 58.726 207.133 57.5815 207.002 56.9625C206.871 56.3436 206.627 55.2931 206.477 54.6178C206.327 53.9425 206.027 52.5919 205.802 51.6351C205.577 50.6596 205.333 49.7779 205.258 49.7028C205.183 49.6278 204.02 49.8156 202.688 50.1344C201.337 50.4532 200.08 50.7533 199.874 50.791C198.974 50.9598 198.955 50.8474 200.418 57.6192C200.568 58.2945 200.868 59.6825 201.093 60.7143C201.318 61.7461 201.6 63.0967 201.75 63.7157C201.881 64.3346 202.125 65.5165 202.294 66.3419C202.781 68.6493 203.157 70.3751 203.438 71.5006C203.569 72.0632 203.757 72.945 203.813 73.4702C203.888 73.9768 204.02 74.4833 204.095 74.5957C204.17 74.6894 204.301 75.2897 204.376 75.909C204.451 76.528 204.564 77.1096 204.657 77.2219C204.732 77.3157 204.864 77.9159 204.939 78.5352C205.014 79.1542 205.127 79.7358 205.22 79.8482C205.295 79.9419 205.427 80.5422 205.502 81.1614C205.577 81.7804 205.689 82.362 205.783 82.4744C205.858 82.5681 206.027 83.2434 206.139 83.9751C206.252 84.6881 206.515 86.0387 206.74 86.9765C206.946 87.8956 207.19 89.0775 207.284 89.6027C207.378 90.1093 207.509 90.7282 207.565 90.9533L207.659 91.3849H190.72H173.762L173.631 82.5307C173.462 69.3996 173.255 7.98366 173.387 7.646C173.499 7.3646 175.375 7.34586 192.483 7.38338L211.467 7.43964L213.737 10.7599ZM314.021 36.1406L314.114 64.8412L317.341 64.8976L320.586 64.9349L320.624 53.2672L320.68 41.5804L336.963 41.5241L353.227 41.4867V55.143C353.227 62.6652 353.171 73.8831 353.094 80.0919L352.984 91.3849H315.653H278.341L278.398 85.8136C278.436 82.7372 278.379 63.9595 278.304 44.0752C278.21 24.2099 278.191 7.81481 278.248 7.646C278.36 7.3646 280.049 7.34586 296.144 7.38338L313.927 7.43964L314.021 36.1406Z" fill="black"/>
<defs>
<linearGradient id="paint0_linear_4320_23" x1="84" y1="49" x2="354" y2="49" gradientUnits="userSpaceOnUse">
<stop stop-color="white"/>
<stop offset="1" stop-color="#CCCCCC"/>
</linearGradient>
<linearGradient id="paint1_linear_4320_23" x1="2" y1="49" x2="79" y2="49" gradientUnits="userSpaceOnUse">
<stop stop-color="#FF0069"/>
<stop offset="1" stop-color="#8A2BE2"/>
</linearGradient>
</defs>
</svg>
