<svg width="512" height="512" viewBox="0 0 512 512" fill="none" xmlns="http://www.w3.org/2000/svg">
<rect width="512" height="512" rx="128" fill="#7187F7"/>
<rect width="157.899" height="46.583" rx="18.6332" transform="matrix(-1 0 0 1 413.773 76)" fill="#E2EF70" stroke="#A5BAFC" stroke-width="4" stroke-linecap="round"/>
<rect width="157.899" height="46.583" rx="18.6332" transform="matrix(-1 0 0 1 413.773 389.417)" fill="#E2EF70" stroke="#A5BAFC" stroke-width="4" stroke-linecap="round"/>
<path d="M150.185 278.611V276.611H154.185V278.611H152.185H150.185ZM248.788 411.294C249.57 412.075 249.57 413.342 248.788 414.123L236.061 426.851C235.28 427.632 234.013 427.632 233.232 426.851C232.451 426.07 232.451 424.803 233.232 424.022L244.546 412.708L233.232 401.395C232.451 400.614 232.451 399.347 233.232 398.566C234.013 397.785 235.28 397.785 236.061 398.566L248.788 411.294ZM152.185 278.611H154.185V388.708H152.185H150.185V278.611H152.185ZM176.185 412.708V410.708H247.374V412.708V414.708H176.185V412.708ZM152.185 388.708H154.185C154.185 400.859 164.035 410.708 176.185 410.708V412.708V414.708C161.825 414.708 150.185 403.068 150.185 388.708H152.185Z" fill="#A5BAFC"/>
<path d="M332.824 298.984V296.984H336.824V298.984H334.824H332.824ZM336.238 382.331C335.457 383.112 334.19 383.112 333.409 382.331L320.681 369.603C319.9 368.822 319.9 367.556 320.681 366.775C321.462 365.994 322.729 365.994 323.51 366.775L334.824 378.089L346.137 366.775C346.918 365.994 348.185 365.994 348.966 366.775C349.747 367.556 349.747 368.822 348.966 369.603L336.238 382.331ZM334.824 298.984H336.824V380.917H334.824H332.824V298.984H334.824Z" fill="#A5BAFC"/>
<path d="M332.824 122.583V120.583H336.824V122.583H334.824H332.824ZM336.238 207.893C335.457 208.674 334.19 208.674 333.409 207.893L320.681 195.165C319.9 194.384 319.9 193.118 320.681 192.337C321.462 191.556 322.729 191.556 323.51 192.337L334.824 203.651L346.137 192.337C346.918 191.556 348.185 191.556 348.966 192.337C349.747 193.118 349.747 194.384 348.966 195.165L336.238 207.893ZM334.824 122.583H336.824V206.479H334.824H332.824V122.583H334.824Z" fill="#A5BAFC"/>
<mask id="path-7-outside-1_1_2" maskUnits="userSpaceOnUse" x="93.5429" y="159.689" width="124" height="173" fill="black">
<rect fill="white" x="93.5429" y="159.689" width="124" height="173"/>
<path d="M98.5429 180.313H114.918V196.688H98.5429V180.313ZM98.5429 196.688H114.918V213.063H98.5429V196.688ZM114.918 196.688H131.293V213.063H114.918V196.688ZM114.918 180.313H131.293V196.688H114.918V180.313ZM114.918 163.938H131.293V180.313H114.918V163.938ZM131.293 163.938H147.668V180.313H131.293V163.938ZM147.668 163.938H164.043V180.313H147.668V163.938ZM164.043 163.938H180.418V180.313H164.043V163.938ZM180.418 163.938H196.793V180.313H180.418V163.938ZM180.418 180.313H196.793V196.688H180.418V180.313ZM164.043 180.313H180.418V196.688H164.043V180.313ZM147.668 180.313H164.043V196.688H147.668V180.313ZM131.293 180.313H147.668V196.688H131.293V180.313ZM180.418 196.688H196.793V213.063H180.418V196.688ZM196.793 196.688H213.168V213.063H196.793V196.688ZM196.793 180.313H213.168V196.688H196.793V180.313ZM196.793 213.063H213.168V229.438H196.793V213.063ZM180.418 213.063H196.793V229.438H180.418V213.063ZM164.043 213.063H180.418V229.438H164.043V213.063ZM164.043 229.438H180.418V245.813H164.043V229.438ZM180.418 229.438H196.793V245.813H180.418V229.438ZM147.668 229.438H164.043V245.813H147.668V229.438ZM147.668 245.813H164.043V262.188H147.668V245.813ZM164.043 245.813H180.418V262.188H164.043V245.813ZM131.293 245.813H147.668V262.188H131.293V245.813ZM131.293 262.188H147.668V278.563H131.293V262.188ZM147.668 262.188H164.043V278.563H147.668V262.188ZM114.918 262.188H131.293V278.563H114.918V262.188ZM114.918 278.563H131.293V294.938H114.918V278.563ZM131.293 278.563H147.668V294.938H131.293V278.563ZM98.5429 278.563H114.918V294.938H98.5429V278.563ZM98.5429 294.938H114.918V311.314H98.5429V294.938ZM98.5429 311.314H114.918V327.689H98.5429V311.314ZM114.918 311.314H131.293V327.689H114.918V311.314ZM114.918 294.938H131.293V311.314H114.918V294.938ZM131.293 294.938H147.668V311.314H131.293V294.938ZM147.668 294.938H164.043V311.314H147.668V294.938ZM147.668 311.314H164.043V327.689H147.668V311.314ZM164.043 311.314H180.418V327.689H164.043V311.314ZM180.418 311.314H196.793V327.689H180.418V311.314ZM196.793 311.314H213.168V327.689H196.793V311.314ZM196.793 294.938H213.168V311.314H196.793V294.938ZM180.418 294.938H196.793V311.314H180.418V294.938ZM164.043 294.938H180.418V311.314H164.043V294.938ZM131.293 311.314H147.668V327.689H131.293V311.314Z"/>
</mask>
<path d="M98.5429 180.313H114.918V196.688H98.5429V180.313ZM98.5429 196.688H114.918V213.063H98.5429V196.688ZM114.918 196.688H131.293V213.063H114.918V196.688ZM114.918 180.313H131.293V196.688H114.918V180.313ZM114.918 163.938H131.293V180.313H114.918V163.938ZM131.293 163.938H147.668V180.313H131.293V163.938ZM147.668 163.938H164.043V180.313H147.668V163.938ZM164.043 163.938H180.418V180.313H164.043V163.938ZM180.418 163.938H196.793V180.313H180.418V163.938ZM180.418 180.313H196.793V196.688H180.418V180.313ZM164.043 180.313H180.418V196.688H164.043V180.313ZM147.668 180.313H164.043V196.688H147.668V180.313ZM131.293 180.313H147.668V196.688H131.293V180.313ZM180.418 196.688H196.793V213.063H180.418V196.688ZM196.793 196.688H213.168V213.063H196.793V196.688ZM196.793 180.313H213.168V196.688H196.793V180.313ZM196.793 213.063H213.168V229.438H196.793V213.063ZM180.418 213.063H196.793V229.438H180.418V213.063ZM164.043 213.063H180.418V229.438H164.043V213.063ZM164.043 229.438H180.418V245.813H164.043V229.438ZM180.418 229.438H196.793V245.813H180.418V229.438ZM147.668 229.438H164.043V245.813H147.668V229.438ZM147.668 245.813H164.043V262.188H147.668V245.813ZM164.043 245.813H180.418V262.188H164.043V245.813ZM131.293 245.813H147.668V262.188H131.293V245.813ZM131.293 262.188H147.668V278.563H131.293V262.188ZM147.668 262.188H164.043V278.563H147.668V262.188ZM114.918 262.188H131.293V278.563H114.918V262.188ZM114.918 278.563H131.293V294.938H114.918V278.563ZM131.293 278.563H147.668V294.938H131.293V278.563ZM98.5429 278.563H114.918V294.938H98.5429V278.563ZM98.5429 294.938H114.918V311.314H98.5429V294.938ZM98.5429 311.314H114.918V327.689H98.5429V311.314ZM114.918 311.314H131.293V327.689H114.918V311.314ZM114.918 294.938H131.293V311.314H114.918V294.938ZM131.293 294.938H147.668V311.314H131.293V294.938ZM147.668 294.938H164.043V311.314H147.668V294.938ZM147.668 311.314H164.043V327.689H147.668V311.314ZM164.043 311.314H180.418V327.689H164.043V311.314ZM180.418 311.314H196.793V327.689H180.418V311.314ZM196.793 311.314H213.168V327.689H196.793V311.314ZM196.793 294.938H213.168V311.314H196.793V294.938ZM180.418 294.938H196.793V311.314H180.418V294.938ZM164.043 294.938H180.418V311.314H164.043V294.938ZM131.293 311.314H147.668V327.689H131.293V311.314Z" fill="#F038FF"/>
<path d="M98.5429 180.313V176.206H94.4355V180.313H98.5429ZM114.918 180.313H119.025V176.206H114.918V180.313ZM114.918 196.688V200.795H119.025V196.688H114.918ZM98.5429 196.688H94.4355V200.795H98.5429V196.688ZM98.5429 196.688V192.581H94.4355V196.688H98.5429ZM114.918 196.688H119.025V192.581H114.918V196.688ZM114.918 213.063V217.171H119.025V213.063H114.918ZM98.5429 213.063H94.4355V217.171H98.5429V213.063ZM114.918 196.688V192.581H110.811V196.688H114.918ZM131.293 196.688H135.4V192.581H131.293V196.688ZM131.293 213.063V217.171H135.4V213.063H131.293ZM114.918 213.063H110.811V217.171H114.918V213.063ZM114.918 180.313V176.206H110.811V180.313H114.918ZM131.293 180.313H135.4V176.206H131.293V180.313ZM131.293 196.688V200.795H135.4V196.688H131.293ZM114.918 196.688H110.811V200.795H114.918V196.688ZM114.918 163.938V159.83H110.811V163.938H114.918ZM131.293 163.938H135.4V159.83H131.293V163.938ZM131.293 180.313V184.42H135.4V180.313H131.293ZM114.918 180.313H110.811V184.42H114.918V180.313ZM131.293 163.938V159.83H127.186V163.938H131.293ZM147.668 163.938H151.776V159.83H147.668V163.938ZM147.668 180.313V184.42H151.776V180.313H147.668ZM131.293 180.313H127.186V184.42H131.293V180.313ZM147.668 163.938V159.83H143.561V163.938H147.668ZM164.043 163.938H168.151V159.83H164.043V163.938ZM164.043 180.313V184.42H168.151V180.313H164.043ZM147.668 180.313H143.561V184.42H147.668V180.313ZM164.043 163.938V159.83H159.936V163.938H164.043ZM180.418 163.938H184.526V159.83H180.418V163.938ZM180.418 180.313V184.42H184.526V180.313H180.418ZM164.043 180.313H159.936V184.42H164.043V180.313ZM180.418 163.938V159.83H176.311V163.938H180.418ZM196.793 163.938H200.901V159.83H196.793V163.938ZM196.793 180.313V184.42H200.901V180.313H196.793ZM180.418 180.313H176.311V184.42H180.418V180.313ZM180.418 180.313V176.206H176.311V180.313H180.418ZM196.793 180.313H200.901V176.206H196.793V180.313ZM196.793 196.688V200.795H200.901V196.688H196.793ZM180.418 196.688H176.311V200.795H180.418V196.688ZM164.043 180.313V176.206H159.936V180.313H164.043ZM180.418 180.313H184.526V176.206H180.418V180.313ZM180.418 196.688V200.795H184.526V196.688H180.418ZM164.043 196.688H159.936V200.795H164.043V196.688ZM147.668 180.313V176.206H143.561V180.313H147.668ZM164.043 180.313H168.151V176.206H164.043V180.313ZM164.043 196.688V200.795H168.151V196.688H164.043ZM147.668 196.688H143.561V200.795H147.668V196.688ZM131.293 180.313V176.206H127.186V180.313H131.293ZM147.668 180.313H151.776V176.206H147.668V180.313ZM147.668 196.688V200.795H151.776V196.688H147.668ZM131.293 196.688H127.186V200.795H131.293V196.688ZM180.418 196.688V192.581H176.311V196.688H180.418ZM196.793 196.688H200.901V192.581H196.793V196.688ZM196.793 213.063V217.171H200.901V213.063H196.793ZM180.418 213.063H176.311V217.171H180.418V213.063ZM196.793 196.688V192.581H192.686V196.688H196.793ZM213.168 196.688H217.276V192.581H213.168V196.688ZM213.168 213.063V217.171H217.276V213.063H213.168ZM196.793 213.063H192.686V217.171H196.793V213.063ZM196.793 180.313V176.206H192.686V180.313H196.793ZM213.168 180.313H217.276V176.206H213.168V180.313ZM213.168 196.688V200.795H217.276V196.688H213.168ZM196.793 196.688H192.686V200.795H196.793V196.688ZM196.793 213.063V208.956H192.686V213.063H196.793ZM213.168 213.063H217.276V208.956H213.168V213.063ZM213.168 229.438V233.546H217.276V229.438H213.168ZM196.793 229.438H192.686V233.546H196.793V229.438ZM180.418 213.063V208.956H176.311V213.063H180.418ZM196.793 213.063H200.901V208.956H196.793V213.063ZM196.793 229.438V233.546H200.901V229.438H196.793ZM180.418 229.438H176.311V233.546H180.418V229.438ZM164.043 213.063V208.956H159.936V213.063H164.043ZM180.418 213.063H184.526V208.956H180.418V213.063ZM180.418 229.438V233.546H184.526V229.438H180.418ZM164.043 229.438H159.936V233.546H164.043V229.438ZM164.043 229.438V225.331H159.936V229.438H164.043ZM180.418 229.438H184.526V225.331H180.418V229.438ZM180.418 245.813V249.921H184.526V245.813H180.418ZM164.043 245.813H159.936V249.921H164.043V245.813ZM180.418 229.438V225.331H176.311V229.438H180.418ZM196.793 229.438H200.901V225.331H196.793V229.438ZM196.793 245.813V249.921H200.901V245.813H196.793ZM180.418 245.813H176.311V249.921H180.418V245.813ZM147.668 229.438V225.331H143.561V229.438H147.668ZM164.043 229.438H168.151V225.331H164.043V229.438ZM164.043 245.813V249.921H168.151V245.813H164.043ZM147.668 245.813H143.561V249.921H147.668V245.813ZM147.668 245.813V241.706H143.561V245.813H147.668ZM164.043 245.813H168.151V241.706H164.043V245.813ZM164.043 262.188V266.296H168.151V262.188H164.043ZM147.668 262.188H143.561V266.296H147.668V262.188ZM164.043 245.813V241.706H159.936V245.813H164.043ZM180.418 245.813H184.526V241.706H180.418V245.813ZM180.418 262.188V266.296H184.526V262.188H180.418ZM164.043 262.188H159.936V266.296H164.043V262.188ZM131.293 245.813V241.706H127.186V245.813H131.293ZM147.668 245.813H151.776V241.706H147.668V245.813ZM147.668 262.188V266.296H151.776V262.188H147.668ZM131.293 262.188H127.186V266.296H131.293V262.188ZM131.293 262.188V258.081H127.186V262.188H131.293ZM147.668 262.188H151.776V258.081H147.668V262.188ZM147.668 278.563V282.671H151.776V278.563H147.668ZM131.293 278.563H127.186V282.671H131.293V278.563ZM147.668 262.188V258.081H143.561V262.188H147.668ZM164.043 262.188H168.151V258.081H164.043V262.188ZM164.043 278.563V282.671H168.151V278.563H164.043ZM147.668 278.563H143.561V282.671H147.668V278.563ZM114.918 262.188V258.081H110.811V262.188H114.918ZM131.293 262.188H135.4V258.081H131.293V262.188ZM131.293 278.563V282.671H135.4V278.563H131.293ZM114.918 278.563H110.811V282.671H114.918V278.563ZM114.918 278.563V274.456H110.811V278.563H114.918ZM131.293 278.563H135.4V274.456H131.293V278.563ZM131.293 294.938V299.046H135.4V294.938H131.293ZM114.918 294.938H110.811V299.046H114.918V294.938ZM131.293 278.563V274.456H127.186V278.563H131.293ZM147.668 278.563H151.776V274.456H147.668V278.563ZM147.668 294.938V299.046H151.776V294.938H147.668ZM131.293 294.938H127.186V299.046H131.293V294.938ZM98.5429 278.563V274.456H94.4355V278.563H98.5429ZM114.918 278.563H119.025V274.456H114.918V278.563ZM114.918 294.938V299.046H119.025V294.938H114.918ZM98.5429 294.938H94.4355V299.046H98.5429V294.938ZM98.5429 294.938V290.831H94.4355V294.938H98.5429ZM114.918 294.938H119.025V290.831H114.918V294.938ZM114.918 311.314V315.421H119.025V311.314H114.918ZM98.5429 311.314H94.4355V315.421H98.5429V311.314ZM98.5429 311.314V307.206H94.4355V311.314H98.5429ZM114.918 311.314H119.025V307.206H114.918V311.314ZM114.918 327.689V331.796H119.025V327.689H114.918ZM98.5429 327.689H94.4355V331.796H98.5429V327.689ZM114.918 311.314V307.206H110.811V311.314H114.918ZM131.293 311.314H135.4V307.206H131.293V311.314ZM131.293 327.689V331.796H135.4V327.689H131.293ZM114.918 327.689H110.811V331.796H114.918V327.689ZM114.918 294.938V290.831H110.811V294.938H114.918ZM131.293 294.938H135.4V290.831H131.293V294.938ZM131.293 311.314V315.421H135.4V311.314H131.293ZM114.918 311.314H110.811V315.421H114.918V311.314ZM131.293 294.938V290.831H127.186V294.938H131.293ZM147.668 294.938H151.776V290.831H147.668V294.938ZM147.668 311.314V315.421H151.776V311.314H147.668ZM131.293 311.314H127.186V315.421H131.293V311.314ZM147.668 294.938V290.831H143.561V294.938H147.668ZM164.043 294.938H168.151V290.831H164.043V294.938ZM164.043 311.314V315.421H168.151V311.314H164.043ZM147.668 311.314H143.561V315.421H147.668V311.314ZM147.668 311.314V307.206H143.561V311.314H147.668ZM164.043 311.314H168.151V307.206H164.043V311.314ZM164.043 327.689V331.796H168.151V327.689H164.043ZM147.668 327.689H143.561V331.796H147.668V327.689ZM164.043 311.314V307.206H159.936V311.314H164.043ZM180.418 311.314H184.526V307.206H180.418V311.314ZM180.418 327.689V331.796H184.526V327.689H180.418ZM164.043 327.689H159.936V331.796H164.043V327.689ZM180.418 311.314V307.206H176.311V311.314H180.418ZM196.793 311.314H200.901V307.206H196.793V311.314ZM196.793 327.689V331.796H200.901V327.689H196.793ZM180.418 327.689H176.311V331.796H180.418V327.689ZM196.793 311.314V307.206H192.686V311.314H196.793ZM213.168 311.314H217.276V307.206H213.168V311.314ZM213.168 327.689V331.796H217.276V327.689H213.168ZM196.793 327.689H192.686V331.796H196.793V327.689ZM196.793 294.938V290.831H192.686V294.938H196.793ZM213.168 294.938H217.276V290.831H213.168V294.938ZM213.168 311.314V315.421H217.276V311.314H213.168ZM196.793 311.314H192.686V315.421H196.793V311.314ZM180.418 294.938V290.831H176.311V294.938H180.418ZM196.793 294.938H200.901V290.831H196.793V294.938ZM196.793 311.314V315.421H200.901V311.314H196.793ZM180.418 311.314H176.311V315.421H180.418V311.314ZM164.043 294.938V290.831H159.936V294.938H164.043ZM180.418 294.938H184.526V290.831H180.418V294.938ZM180.418 311.314V315.421H184.526V311.314H180.418ZM164.043 311.314H159.936V315.421H164.043V311.314ZM131.293 311.314V307.206H127.186V311.314H131.293ZM147.668 311.314H151.776V307.206H147.668V311.314ZM147.668 327.689V331.796H151.776V327.689H147.668ZM131.293 327.689H127.186V331.796H131.293V327.689ZM98.5429 180.313V184.42H114.918V180.313V176.206H98.5429V180.313ZM114.918 180.313H110.811V196.688H114.918H119.025V180.313H114.918ZM114.918 196.688V192.581H98.5429V196.688V200.795H114.918V196.688ZM98.5429 196.688H102.65V180.313H98.5429H94.4355V196.688H98.5429ZM98.5429 196.688V200.795H114.918V196.688V192.581H98.5429V196.688ZM114.918 196.688H110.811V213.063H114.918H119.025V196.688H114.918ZM114.918 213.063V208.956H98.5429V213.063V217.171H114.918V213.063ZM98.5429 213.063H102.65V196.688H98.5429H94.4355V213.063H98.5429ZM114.918 196.688V200.795H131.293V196.688V192.581H114.918V196.688ZM131.293 196.688H127.186V213.063H131.293H135.4V196.688H131.293ZM131.293 213.063V208.956H114.918V213.063V217.171H131.293V213.063ZM114.918 213.063H119.025V196.688H114.918H110.811V213.063H114.918ZM114.918 180.313V184.42H131.293V180.313V176.206H114.918V180.313ZM131.293 180.313H127.186V196.688H131.293H135.4V180.313H131.293ZM131.293 196.688V192.581H114.918V196.688V200.795H131.293V196.688ZM114.918 196.688H119.025V180.313H114.918H110.811V196.688H114.918ZM114.918 163.938V168.045H131.293V163.938V159.83H114.918V163.938ZM131.293 163.938H127.186V180.313H131.293H135.4V163.938H131.293ZM131.293 180.313V176.206H114.918V180.313V184.42H131.293V180.313ZM114.918 180.313H119.025V163.938H114.918H110.811V180.313H114.918ZM131.293 163.938V168.045H147.668V163.938V159.83H131.293V163.938ZM147.668 163.938H143.561V180.313H147.668H151.776V163.938H147.668ZM147.668 180.313V176.206H131.293V180.313V184.42H147.668V180.313ZM131.293 180.313H135.4V163.938H131.293H127.186V180.313H131.293ZM147.668 163.938V168.045H164.043V163.938V159.83H147.668V163.938ZM164.043 163.938H159.936V180.313H164.043H168.151V163.938H164.043ZM164.043 180.313V176.206H147.668V180.313V184.42H164.043V180.313ZM147.668 180.313H151.776V163.938H147.668H143.561V180.313H147.668ZM164.043 163.938V168.045H180.418V163.938V159.83H164.043V163.938ZM180.418 163.938H176.311V180.313H180.418H184.526V163.938H180.418ZM180.418 180.313V176.206H164.043V180.313V184.42H180.418V180.313ZM164.043 180.313H168.151V163.938H164.043H159.936V180.313H164.043ZM180.418 163.938V168.045H196.793V163.938V159.83H180.418V163.938ZM196.793 163.938H192.686V180.313H196.793H200.901V163.938H196.793ZM196.793 180.313V176.206H180.418V180.313V184.42H196.793V180.313ZM180.418 180.313H184.526V163.938H180.418H176.311V180.313H180.418ZM180.418 180.313V184.42H196.793V180.313V176.206H180.418V180.313ZM196.793 180.313H192.686V196.688H196.793H200.901V180.313H196.793ZM196.793 196.688V192.581H180.418V196.688V200.795H196.793V196.688ZM180.418 196.688H184.526V180.313H180.418H176.311V196.688H180.418ZM164.043 180.313V184.42H180.418V180.313V176.206H164.043V180.313ZM180.418 180.313H176.311V196.688H180.418H184.526V180.313H180.418ZM180.418 196.688V192.581H164.043V196.688V200.795H180.418V196.688ZM164.043 196.688H168.151V180.313H164.043H159.936V196.688H164.043ZM147.668 180.313V184.42H164.043V180.313V176.206H147.668V180.313ZM164.043 180.313H159.936V196.688H164.043H168.151V180.313H164.043ZM164.043 196.688V192.581H147.668V196.688V200.795H164.043V196.688ZM147.668 196.688H151.776V180.313H147.668H143.561V196.688H147.668ZM131.293 180.313V184.42H147.668V180.313V176.206H131.293V180.313ZM147.668 180.313H143.561V196.688H147.668H151.776V180.313H147.668ZM147.668 196.688V192.581H131.293V196.688V200.795H147.668V196.688ZM131.293 196.688H135.4V180.313H131.293H127.186V196.688H131.293ZM180.418 196.688V200.795H196.793V196.688V192.581H180.418V196.688ZM196.793 196.688H192.686V213.063H196.793H200.901V196.688H196.793ZM196.793 213.063V208.956H180.418V213.063V217.171H196.793V213.063ZM180.418 213.063H184.526V196.688H180.418H176.311V213.063H180.418ZM196.793 196.688V200.795H213.168V196.688V192.581H196.793V196.688ZM213.168 196.688H209.061V213.063H213.168H217.276V196.688H213.168ZM213.168 213.063V208.956H196.793V213.063V217.171H213.168V213.063ZM196.793 213.063H200.901V196.688H196.793H192.686V213.063H196.793ZM196.793 180.313V184.42H213.168V180.313V176.206H196.793V180.313ZM213.168 180.313H209.061V196.688H213.168H217.276V180.313H213.168ZM213.168 196.688V192.581H196.793V196.688V200.795H213.168V196.688ZM196.793 196.688H200.901V180.313H196.793H192.686V196.688H196.793ZM196.793 213.063V217.171H213.168V213.063V208.956H196.793V213.063ZM213.168 213.063H209.061V229.438H213.168H217.276V213.063H213.168ZM213.168 229.438V225.331H196.793V229.438V233.546H213.168V229.438ZM196.793 229.438H200.901V213.063H196.793H192.686V229.438H196.793ZM180.418 213.063V217.171H196.793V213.063V208.956H180.418V213.063ZM196.793 213.063H192.686V229.438H196.793H200.901V213.063H196.793ZM196.793 229.438V225.331H180.418V229.438V233.546H196.793V229.438ZM180.418 229.438H184.526V213.063H180.418H176.311V229.438H180.418ZM164.043 213.063V217.171H180.418V213.063V208.956H164.043V213.063ZM180.418 213.063H176.311V229.438H180.418H184.526V213.063H180.418ZM180.418 229.438V225.331H164.043V229.438V233.546H180.418V229.438ZM164.043 229.438H168.151V213.063H164.043H159.936V229.438H164.043ZM164.043 229.438V233.546H180.418V229.438V225.331H164.043V229.438ZM180.418 229.438H176.311V245.813H180.418H184.526V229.438H180.418ZM180.418 245.813V241.706H164.043V245.813V249.921H180.418V245.813ZM164.043 245.813H168.151V229.438H164.043H159.936V245.813H164.043ZM180.418 229.438V233.546H196.793V229.438V225.331H180.418V229.438ZM196.793 229.438H192.686V245.813H196.793H200.901V229.438H196.793ZM196.793 245.813V241.706H180.418V245.813V249.921H196.793V245.813ZM180.418 245.813H184.526V229.438H180.418H176.311V245.813H180.418ZM147.668 229.438V233.546H164.043V229.438V225.331H147.668V229.438ZM164.043 229.438H159.936V245.813H164.043H168.151V229.438H164.043ZM164.043 245.813V241.706H147.668V245.813V249.921H164.043V245.813ZM147.668 245.813H151.776V229.438H147.668H143.561V245.813H147.668ZM147.668 245.813V249.921H164.043V245.813V241.706H147.668V245.813ZM164.043 245.813H159.936V262.188H164.043H168.151V245.813H164.043ZM164.043 262.188V258.081H147.668V262.188V266.296H164.043V262.188ZM147.668 262.188H151.776V245.813H147.668H143.561V262.188H147.668ZM164.043 245.813V249.921H180.418V245.813V241.706H164.043V245.813ZM180.418 245.813H176.311V262.188H180.418H184.526V245.813H180.418ZM180.418 262.188V258.081H164.043V262.188V266.296H180.418V262.188ZM164.043 262.188H168.151V245.813H164.043H159.936V262.188H164.043ZM131.293 245.813V249.921H147.668V245.813V241.706H131.293V245.813ZM147.668 245.813H143.561V262.188H147.668H151.776V245.813H147.668ZM147.668 262.188V258.081H131.293V262.188V266.296H147.668V262.188ZM131.293 262.188H135.4V245.813H131.293H127.186V262.188H131.293ZM131.293 262.188V266.296H147.668V262.188V258.081H131.293V262.188ZM147.668 262.188H143.561V278.563H147.668H151.776V262.188H147.668ZM147.668 278.563V274.456H131.293V278.563V282.671H147.668V278.563ZM131.293 278.563H135.4V262.188H131.293H127.186V278.563H131.293ZM147.668 262.188V266.296H164.043V262.188V258.081H147.668V262.188ZM164.043 262.188H159.936V278.563H164.043H168.151V262.188H164.043ZM164.043 278.563V274.456H147.668V278.563V282.671H164.043V278.563ZM147.668 278.563H151.776V262.188H147.668H143.561V278.563H147.668ZM114.918 262.188V266.296H131.293V262.188V258.081H114.918V262.188ZM131.293 262.188H127.186V278.563H131.293H135.4V262.188H131.293ZM131.293 278.563V274.456H114.918V278.563V282.671H131.293V278.563ZM114.918 278.563H119.025V262.188H114.918H110.811V278.563H114.918ZM114.918 278.563V282.671H131.293V278.563V274.456H114.918V278.563ZM131.293 278.563H127.186V294.938H131.293H135.4V278.563H131.293ZM131.293 294.938V290.831H114.918V294.938V299.046H131.293V294.938ZM114.918 294.938H119.025V278.563H114.918H110.811V294.938H114.918ZM131.293 278.563V282.671H147.668V278.563V274.456H131.293V278.563ZM147.668 278.563H143.561V294.938H147.668H151.776V278.563H147.668ZM147.668 294.938V290.831H131.293V294.938V299.046H147.668V294.938ZM131.293 294.938H135.4V278.563H131.293H127.186V294.938H131.293ZM98.5429 278.563V282.671H114.918V278.563V274.456H98.5429V278.563ZM114.918 278.563H110.811V294.938H114.918H119.025V278.563H114.918ZM114.918 294.938V290.831H98.5429V294.938V299.046H114.918V294.938ZM98.5429 294.938H102.65V278.563H98.5429H94.4355V294.938H98.5429ZM98.5429 294.938V299.046H114.918V294.938V290.831H98.5429V294.938ZM114.918 294.938H110.811V311.314H114.918H119.025V294.938H114.918ZM114.918 311.314V307.206H98.5429V311.314V315.421H114.918V311.314ZM98.5429 311.314H102.65V294.938H98.5429H94.4355V311.314H98.5429ZM98.5429 311.314V315.421H114.918V311.314V307.206H98.5429V311.314ZM114.918 311.314H110.811V327.689H114.918H119.025V311.314H114.918ZM114.918 327.689V323.581H98.5429V327.689V331.796H114.918V327.689ZM98.5429 327.689H102.65V311.314H98.5429H94.4355V327.689H98.5429ZM114.918 311.314V315.421H131.293V311.314V307.206H114.918V311.314ZM131.293 311.314H127.186V327.689H131.293H135.4V311.314H131.293ZM131.293 327.689V323.581H114.918V327.689V331.796H131.293V327.689ZM114.918 327.689H119.025V311.314H114.918H110.811V327.689H114.918ZM114.918 294.938V299.046H131.293V294.938V290.831H114.918V294.938ZM131.293 294.938H127.186V311.314H131.293H135.4V294.938H131.293ZM131.293 311.314V307.206H114.918V311.314V315.421H131.293V311.314ZM114.918 311.314H119.025V294.938H114.918H110.811V311.314H114.918ZM131.293 294.938V299.046H147.668V294.938V290.831H131.293V294.938ZM147.668 294.938H143.561V311.314H147.668H151.776V294.938H147.668ZM147.668 311.314V307.206H131.293V311.314V315.421H147.668V311.314ZM131.293 311.314H135.4V294.938H131.293H127.186V311.314H131.293ZM147.668 294.938V299.046H164.043V294.938V290.831H147.668V294.938ZM164.043 294.938H159.936V311.314H164.043H168.151V294.938H164.043ZM164.043 311.314V307.206H147.668V311.314V315.421H164.043V311.314ZM147.668 311.314H151.776V294.938H147.668H143.561V311.314H147.668ZM147.668 311.314V315.421H164.043V311.314V307.206H147.668V311.314ZM164.043 311.314H159.936V327.689H164.043H168.151V311.314H164.043ZM164.043 327.689V323.581H147.668V327.689V331.796H164.043V327.689ZM147.668 327.689H151.776V311.314H147.668H143.561V327.689H147.668ZM164.043 311.314V315.421H180.418V311.314V307.206H164.043V311.314ZM180.418 311.314H176.311V327.689H180.418H184.526V311.314H180.418ZM180.418 327.689V323.581H164.043V327.689V331.796H180.418V327.689ZM164.043 327.689H168.151V311.314H164.043H159.936V327.689H164.043ZM180.418 311.314V315.421H196.793V311.314V307.206H180.418V311.314ZM196.793 311.314H192.686V327.689H196.793H200.901V311.314H196.793ZM196.793 327.689V323.581H180.418V327.689V331.796H196.793V327.689ZM180.418 327.689H184.526V311.314H180.418H176.311V327.689H180.418ZM196.793 311.314V315.421H213.168V311.314V307.206H196.793V311.314ZM213.168 311.314H209.061V327.689H213.168H217.276V311.314H213.168ZM213.168 327.689V323.581H196.793V327.689V331.796H213.168V327.689ZM196.793 327.689H200.901V311.314H196.793H192.686V327.689H196.793ZM196.793 294.938V299.046H213.168V294.938V290.831H196.793V294.938ZM213.168 294.938H209.061V311.314H213.168H217.276V294.938H213.168ZM213.168 311.314V307.206H196.793V311.314V315.421H213.168V311.314ZM196.793 311.314H200.901V294.938H196.793H192.686V311.314H196.793ZM180.418 294.938V299.046H196.793V294.938V290.831H180.418V294.938ZM196.793 294.938H192.686V311.314H196.793H200.901V294.938H196.793ZM196.793 311.314V307.206H180.418V311.314V315.421H196.793V311.314ZM180.418 311.314H184.526V294.938H180.418H176.311V311.314H180.418ZM164.043 294.938V299.046H180.418V294.938V290.831H164.043V294.938ZM180.418 294.938H176.311V311.314H180.418H184.526V294.938H180.418ZM180.418 311.314V307.206H164.043V311.314V315.421H180.418V311.314ZM164.043 311.314H168.151V294.938H164.043H159.936V311.314H164.043ZM131.293 311.314V315.421H147.668V311.314V307.206H131.293V311.314ZM147.668 311.314H143.561V327.689H147.668H151.776V311.314H147.668ZM147.668 327.689V323.581H131.293V327.689V331.796H147.668V327.689ZM131.293 327.689H135.4V311.314H131.293H127.186V327.689H131.293Z" fill="#A5BAFC" mask="url(#path-7-outside-1_1_2)"/>
<mask id="path-9-outside-2_1_2" maskUnits="userSpaceOnUse" x="189.85" y="187.217" width="236" height="117" fill="black">
<rect fill="white" x="189.85" y="187.217" width="236" height="117"/>
<path d="M270.221 288.45H259.454V277.682H270.221V288.45ZM270.221 299.217H259.454V288.45H270.221V299.217ZM259.454 299.217H248.687V288.45H259.454V299.217ZM259.454 288.45H248.687V277.682H259.454V288.45ZM259.454 277.682H248.687V266.915H259.454V277.682ZM259.454 266.915H248.687V256.148H259.454V266.915ZM259.454 256.148H248.687V245.38H259.454V256.148ZM270.221 256.148H259.454V245.38H270.221V256.148ZM270.221 266.915H259.454V256.148H270.221V266.915ZM270.221 277.682H259.454V266.915H270.221V277.682ZM270.221 245.38H259.454V234.613H270.221V245.38ZM259.454 245.38H248.687V234.613H259.454V245.38ZM259.454 234.613H248.687V223.846H259.454V234.613ZM259.454 223.846H248.687V213.079H259.454V223.846ZM270.221 223.846H259.454V213.079H270.221V223.846ZM270.221 234.613H259.454V223.846H270.221V234.613ZM216.385 223.846H205.618V213.079H216.385V223.846ZM205.618 223.846H194.85V213.079H205.618V223.846ZM205.618 234.613H194.85V223.846H205.618V234.613ZM205.618 245.38H194.85V234.613H205.618V245.38ZM205.618 256.148H194.85V245.38H205.618V256.148ZM205.618 266.915H194.85V256.148H205.618V266.915ZM205.618 277.682H194.85V266.915H205.618V277.682ZM205.618 288.45H194.85V277.682H205.618V288.45ZM216.385 266.915H205.618V256.148H216.385V266.915ZM216.385 256.148H205.618V245.38H216.385V256.148ZM216.385 245.38H205.618V234.613H216.385V245.38ZM216.385 234.613H205.618V223.846H216.385V234.613ZM216.385 277.682H205.618V266.915H216.385V277.682ZM248.687 288.45H237.92V277.682H248.687V288.45ZM237.92 288.45H227.152V277.682H237.92V288.45ZM227.152 288.45H216.385V277.682H227.152V288.45ZM227.152 299.217H216.385V288.45H227.152V299.217ZM216.385 299.217H205.618V288.45H216.385V299.217ZM216.385 288.45H205.618V277.682H216.385V288.45ZM237.92 299.217H227.152V288.45H237.92V299.217ZM281.017 223.846H291.784V234.613H281.017V223.846ZM281.017 213.079H291.784V223.846H281.017V213.079ZM291.784 213.079H302.551V223.846H291.784V213.079ZM291.784 223.846H302.551V234.613H291.784V223.846ZM291.784 234.613H302.551V245.38H291.784V234.613ZM291.784 245.38H302.551V256.148H291.784V245.38ZM291.784 256.148H302.551V266.915H291.784V256.148ZM281.017 256.148H291.784V266.915H281.017V256.148ZM281.017 245.38H291.784V256.148H281.017V245.38ZM281.017 234.613H291.784V245.38H281.017V234.613ZM281.017 266.915H291.784V277.682H281.017V266.915ZM291.784 266.915H302.551V277.682H291.784V266.915ZM291.784 277.682H302.551V288.45H291.784V277.682ZM291.784 288.45H302.551V299.217H291.784V288.45ZM281.017 288.45H291.784V299.217H281.017V288.45ZM281.017 277.682H291.784V288.45H281.017V277.682ZM324.086 288.45H334.853V299.217H324.086V288.45ZM334.853 288.45H345.621V299.217H334.853V288.45ZM334.853 277.682H345.621V288.45H334.853V277.682ZM334.853 266.915H345.621V277.682H334.853V266.915ZM334.853 256.148H345.621V266.915H334.853V256.148ZM334.853 245.38H345.621V256.148H334.853V245.38ZM334.853 234.613H345.621V245.38H334.853V234.613ZM334.853 223.846H345.621V234.613H334.853V223.846ZM324.086 245.38H334.853V256.148H324.086V245.38ZM324.086 256.148H334.853V266.915H324.086V256.148ZM324.086 266.915H334.853V277.682H324.086V266.915ZM324.086 277.682H334.853V288.45H324.086V277.682ZM324.086 234.613H334.853V245.38H324.086V234.613ZM302.551 223.846H313.319V234.613H302.551V223.846ZM313.319 223.846H324.086V234.613H313.319V223.846ZM324.086 213.079H334.853V223.846H324.086V213.079ZM324.086 223.846H334.853V234.613H324.086V223.846ZM313.319 213.079H324.086V223.846H313.319V213.079ZM367.155 288.45H377.922V299.217H367.155V288.45ZM377.922 288.45H388.69V299.217H377.922V288.45ZM377.922 277.682H388.69V288.45H377.922V277.682ZM377.922 266.915H388.69V277.682H377.922V266.915ZM377.922 256.148H388.69V266.915H377.922V256.148ZM377.922 245.38H388.69V256.148H377.922V245.38ZM377.922 234.613H388.69V245.38H377.922V234.613ZM377.922 223.846H388.69V234.613H377.922V223.846ZM367.155 245.38H377.922V256.148H367.155V245.38ZM367.155 256.148H377.922V266.915H367.155V256.148ZM367.155 266.915H377.922V277.682H367.155V266.915ZM367.155 277.682H377.922V288.45H367.155V277.682ZM367.155 234.613H377.922V245.38H367.155V234.613ZM345.621 223.846H356.388V234.613H345.621V223.846ZM356.388 223.846H367.155V234.613H356.388V223.846ZM367.155 213.079H377.922V223.846H367.155V213.079ZM367.155 223.846H377.922V234.613H367.155V223.846ZM356.388 213.079H367.155V223.846H356.388V213.079ZM399.373 191.544H410.14V202.311H399.373V191.544ZM410.14 191.544H420.907V202.311H410.14V191.544ZM410.14 202.311H420.907V213.079H410.14V202.311ZM410.14 213.079H420.907V223.846H410.14V213.079ZM410.14 223.846H420.907V234.613H410.14V223.846ZM410.14 234.613H420.907V245.38H410.14V234.613ZM410.14 245.38H420.907V256.148H410.14V245.38ZM399.373 245.38H410.14V256.148H399.373V245.38ZM399.373 256.148H410.14V266.915H399.373V256.148ZM399.373 266.915H410.14V277.682H399.373V266.915ZM399.373 277.682H410.14V288.45H399.373V277.682ZM399.373 288.45H410.14V299.217H399.373V288.45ZM410.14 288.45H420.907V299.217H410.14V288.45ZM410.14 277.682H420.907V288.45H410.14V277.682ZM410.14 266.915H420.907V277.682H410.14V266.915ZM410.14 256.148H420.907V266.915H410.14V256.148ZM399.373 234.613H410.14V245.38H399.373V234.613ZM399.373 223.846H410.14V234.613H399.373V223.846ZM399.373 213.079H410.14V223.846H399.373V213.079ZM399.373 202.311H410.14V213.079H399.373V202.311Z"/>
</mask>
<path d="M270.221 288.45H259.454V277.682H270.221V288.45ZM270.221 299.217H259.454V288.45H270.221V299.217ZM259.454 299.217H248.687V288.45H259.454V299.217ZM259.454 288.45H248.687V277.682H259.454V288.45ZM259.454 277.682H248.687V266.915H259.454V277.682ZM259.454 266.915H248.687V256.148H259.454V266.915ZM259.454 256.148H248.687V245.38H259.454V256.148ZM270.221 256.148H259.454V245.38H270.221V256.148ZM270.221 266.915H259.454V256.148H270.221V266.915ZM270.221 277.682H259.454V266.915H270.221V277.682ZM270.221 245.38H259.454V234.613H270.221V245.38ZM259.454 245.38H248.687V234.613H259.454V245.38ZM259.454 234.613H248.687V223.846H259.454V234.613ZM259.454 223.846H248.687V213.079H259.454V223.846ZM270.221 223.846H259.454V213.079H270.221V223.846ZM270.221 234.613H259.454V223.846H270.221V234.613ZM216.385 223.846H205.618V213.079H216.385V223.846ZM205.618 223.846H194.85V213.079H205.618V223.846ZM205.618 234.613H194.85V223.846H205.618V234.613ZM205.618 245.38H194.85V234.613H205.618V245.38ZM205.618 256.148H194.85V245.38H205.618V256.148ZM205.618 266.915H194.85V256.148H205.618V266.915ZM205.618 277.682H194.85V266.915H205.618V277.682ZM205.618 288.45H194.85V277.682H205.618V288.45ZM216.385 266.915H205.618V256.148H216.385V266.915ZM216.385 256.148H205.618V245.38H216.385V256.148ZM216.385 245.38H205.618V234.613H216.385V245.38ZM216.385 234.613H205.618V223.846H216.385V234.613ZM216.385 277.682H205.618V266.915H216.385V277.682ZM248.687 288.45H237.92V277.682H248.687V288.45ZM237.92 288.45H227.152V277.682H237.92V288.45ZM227.152 288.45H216.385V277.682H227.152V288.45ZM227.152 299.217H216.385V288.45H227.152V299.217ZM216.385 299.217H205.618V288.45H216.385V299.217ZM216.385 288.45H205.618V277.682H216.385V288.45ZM237.92 299.217H227.152V288.45H237.92V299.217ZM281.017 223.846H291.784V234.613H281.017V223.846ZM281.017 213.079H291.784V223.846H281.017V213.079ZM291.784 213.079H302.551V223.846H291.784V213.079ZM291.784 223.846H302.551V234.613H291.784V223.846ZM291.784 234.613H302.551V245.38H291.784V234.613ZM291.784 245.38H302.551V256.148H291.784V245.38ZM291.784 256.148H302.551V266.915H291.784V256.148ZM281.017 256.148H291.784V266.915H281.017V256.148ZM281.017 245.38H291.784V256.148H281.017V245.38ZM281.017 234.613H291.784V245.38H281.017V234.613ZM281.017 266.915H291.784V277.682H281.017V266.915ZM291.784 266.915H302.551V277.682H291.784V266.915ZM291.784 277.682H302.551V288.45H291.784V277.682ZM291.784 288.45H302.551V299.217H291.784V288.45ZM281.017 288.45H291.784V299.217H281.017V288.45ZM281.017 277.682H291.784V288.45H281.017V277.682ZM324.086 288.45H334.853V299.217H324.086V288.45ZM334.853 288.45H345.621V299.217H334.853V288.45ZM334.853 277.682H345.621V288.45H334.853V277.682ZM334.853 266.915H345.621V277.682H334.853V266.915ZM334.853 256.148H345.621V266.915H334.853V256.148ZM334.853 245.38H345.621V256.148H334.853V245.38ZM334.853 234.613H345.621V245.38H334.853V234.613ZM334.853 223.846H345.621V234.613H334.853V223.846ZM324.086 245.38H334.853V256.148H324.086V245.38ZM324.086 256.148H334.853V266.915H324.086V256.148ZM324.086 266.915H334.853V277.682H324.086V266.915ZM324.086 277.682H334.853V288.45H324.086V277.682ZM324.086 234.613H334.853V245.38H324.086V234.613ZM302.551 223.846H313.319V234.613H302.551V223.846ZM313.319 223.846H324.086V234.613H313.319V223.846ZM324.086 213.079H334.853V223.846H324.086V213.079ZM324.086 223.846H334.853V234.613H324.086V223.846ZM313.319 213.079H324.086V223.846H313.319V213.079ZM367.155 288.45H377.922V299.217H367.155V288.45ZM377.922 288.45H388.69V299.217H377.922V288.45ZM377.922 277.682H388.69V288.45H377.922V277.682ZM377.922 266.915H388.69V277.682H377.922V266.915ZM377.922 256.148H388.69V266.915H377.922V256.148ZM377.922 245.38H388.69V256.148H377.922V245.38ZM377.922 234.613H388.69V245.38H377.922V234.613ZM377.922 223.846H388.69V234.613H377.922V223.846ZM367.155 245.38H377.922V256.148H367.155V245.38ZM367.155 256.148H377.922V266.915H367.155V256.148ZM367.155 266.915H377.922V277.682H367.155V266.915ZM367.155 277.682H377.922V288.45H367.155V277.682ZM367.155 234.613H377.922V245.38H367.155V234.613ZM345.621 223.846H356.388V234.613H345.621V223.846ZM356.388 223.846H367.155V234.613H356.388V223.846ZM367.155 213.079H377.922V223.846H367.155V213.079ZM367.155 223.846H377.922V234.613H367.155V223.846ZM356.388 213.079H367.155V223.846H356.388V213.079ZM399.373 191.544H410.14V202.311H399.373V191.544ZM410.14 191.544H420.907V202.311H410.14V191.544ZM410.14 202.311H420.907V213.079H410.14V202.311ZM410.14 213.079H420.907V223.846H410.14V213.079ZM410.14 223.846H420.907V234.613H410.14V223.846ZM410.14 234.613H420.907V245.38H410.14V234.613ZM410.14 245.38H420.907V256.148H410.14V245.38ZM399.373 245.38H410.14V256.148H399.373V245.38ZM399.373 256.148H410.14V266.915H399.373V256.148ZM399.373 266.915H410.14V277.682H399.373V266.915ZM399.373 277.682H410.14V288.45H399.373V277.682ZM399.373 288.45H410.14V299.217H399.373V288.45ZM410.14 288.45H420.907V299.217H410.14V288.45ZM410.14 277.682H420.907V288.45H410.14V277.682ZM410.14 266.915H420.907V277.682H410.14V266.915ZM410.14 256.148H420.907V266.915H410.14V256.148ZM399.373 234.613H410.14V245.38H399.373V234.613ZM399.373 223.846H410.14V234.613H399.373V223.846ZM399.373 213.079H410.14V223.846H399.373V213.079ZM399.373 202.311H410.14V213.079H399.373V202.311Z" fill="white"/>
<path d="M270.221 288.45V292.557H274.329V288.45H270.221ZM259.454 288.45H255.347V292.557H259.454V288.45ZM259.454 277.682V273.575H255.347V277.682H259.454ZM270.221 277.682H274.329V273.575H270.221V277.682ZM270.221 299.217V303.324H274.329V299.217H270.221ZM259.454 299.217H255.347V303.324H259.454V299.217ZM259.454 288.45V284.342H255.347V288.45H259.454ZM270.221 288.45H274.329V284.342H270.221V288.45ZM259.454 299.217V303.324H263.562V299.217H259.454ZM248.687 299.217H244.579V303.324H248.687V299.217ZM248.687 288.45V284.342H244.579V288.45H248.687ZM259.454 288.45H263.562V284.342H259.454V288.45ZM259.454 288.45V292.557H263.562V288.45H259.454ZM248.687 288.45H244.579V292.557H248.687V288.45ZM248.687 277.682V273.575H244.579V277.682H248.687ZM259.454 277.682H263.562V273.575H259.454V277.682ZM259.454 277.682V281.79H263.562V277.682H259.454ZM248.687 277.682H244.579V281.79H248.687V277.682ZM248.687 266.915V262.808H244.579V266.915H248.687ZM259.454 266.915H263.562V262.808H259.454V266.915ZM259.454 266.915V271.022H263.562V266.915H259.454ZM248.687 266.915H244.579V271.022H248.687V266.915ZM248.687 256.148V252.04H244.579V256.148H248.687ZM259.454 256.148H263.562V252.04H259.454V256.148ZM259.454 256.148V260.255H263.562V256.148H259.454ZM248.687 256.148H244.579V260.255H248.687V256.148ZM248.687 245.38V241.273H244.579V245.38H248.687ZM259.454 245.38H263.562V241.273H259.454V245.38ZM270.221 256.148V260.255H274.329V256.148H270.221ZM259.454 256.148H255.347V260.255H259.454V256.148ZM259.454 245.38V241.273H255.347V245.38H259.454ZM270.221 245.38H274.329V241.273H270.221V245.38ZM270.221 266.915V271.022H274.329V266.915H270.221ZM259.454 266.915H255.347V271.022H259.454V266.915ZM259.454 256.148V252.04H255.347V256.148H259.454ZM270.221 256.148H274.329V252.04H270.221V256.148ZM270.221 277.682V281.79H274.329V277.682H270.221ZM259.454 277.682H255.347V281.79H259.454V277.682ZM259.454 266.915V262.808H255.347V266.915H259.454ZM270.221 266.915H274.329V262.808H270.221V266.915ZM270.221 245.38V249.488H274.329V245.38H270.221ZM259.454 245.38H255.347V249.488H259.454V245.38ZM259.454 234.613V230.506H255.347V234.613H259.454ZM270.221 234.613H274.329V230.506H270.221V234.613ZM259.454 245.38V249.488H263.562V245.38H259.454ZM248.687 245.38H244.579V249.488H248.687V245.38ZM248.687 234.613V230.506H244.579V234.613H248.687ZM259.454 234.613H263.562V230.506H259.454V234.613ZM259.454 234.613V238.721H263.562V234.613H259.454ZM248.687 234.613H244.579V238.721H248.687V234.613ZM248.687 223.846V219.738H244.579V223.846H248.687ZM259.454 223.846H263.562V219.738H259.454V223.846ZM259.454 223.846V227.953H263.562V223.846H259.454ZM248.687 223.846H244.579V227.953H248.687V223.846ZM248.687 213.079V208.971H244.579V213.079H248.687ZM259.454 213.079H263.562V208.971H259.454V213.079ZM270.221 223.846V227.953H274.329V223.846H270.221ZM259.454 223.846H255.347V227.953H259.454V223.846ZM259.454 213.079V208.971H255.347V213.079H259.454ZM270.221 213.079H274.329V208.971H270.221V213.079ZM270.221 234.613V238.721H274.329V234.613H270.221ZM259.454 234.613H255.347V238.721H259.454V234.613ZM259.454 223.846V219.738H255.347V223.846H259.454ZM270.221 223.846H274.329V219.738H270.221V223.846ZM216.385 223.846V227.953H220.492V223.846H216.385ZM205.618 223.846H201.51V227.953H205.618V223.846ZM205.618 213.079V208.971H201.51V213.079H205.618ZM216.385 213.079H220.492V208.971H216.385V213.079ZM205.618 223.846V227.953H209.725V223.846H205.618ZM194.85 223.846H190.743V227.953H194.85V223.846ZM194.85 213.079V208.971H190.743V213.079H194.85ZM205.618 213.079H209.725V208.971H205.618V213.079ZM205.618 234.613V238.721H209.725V234.613H205.618ZM194.85 234.613H190.743V238.721H194.85V234.613ZM194.85 223.846V219.738H190.743V223.846H194.85ZM205.618 223.846H209.725V219.738H205.618V223.846ZM205.618 245.38V249.488H209.725V245.38H205.618ZM194.85 245.38H190.743V249.488H194.85V245.38ZM194.85 234.613V230.506H190.743V234.613H194.85ZM205.618 234.613H209.725V230.506H205.618V234.613ZM205.618 256.148V260.255H209.725V256.148H205.618ZM194.85 256.148H190.743V260.255H194.85V256.148ZM194.85 245.38V241.273H190.743V245.38H194.85ZM205.618 245.38H209.725V241.273H205.618V245.38ZM205.618 266.915V271.022H209.725V266.915H205.618ZM194.85 266.915H190.743V271.022H194.85V266.915ZM194.85 256.148V252.04H190.743V256.148H194.85ZM205.618 256.148H209.725V252.04H205.618V256.148ZM205.618 277.682V281.79H209.725V277.682H205.618ZM194.85 277.682H190.743V281.79H194.85V277.682ZM194.85 266.915V262.808H190.743V266.915H194.85ZM205.618 266.915H209.725V262.808H205.618V266.915ZM205.618 288.45V292.557H209.725V288.45H205.618ZM194.85 288.45H190.743V292.557H194.85V288.45ZM194.85 277.682V273.575H190.743V277.682H194.85ZM205.618 277.682H209.725V273.575H205.618V277.682ZM216.385 266.915V271.022H220.492V266.915H216.385ZM205.618 266.915H201.51V271.022H205.618V266.915ZM205.618 256.148V252.04H201.51V256.148H205.618ZM216.385 256.148H220.492V252.04H216.385V256.148ZM216.385 256.148V260.255H220.492V256.148H216.385ZM205.618 256.148H201.51V260.255H205.618V256.148ZM205.618 245.38V241.273H201.51V245.38H205.618ZM216.385 245.38H220.492V241.273H216.385V245.38ZM216.385 245.38V249.488H220.492V245.38H216.385ZM205.618 245.38H201.51V249.488H205.618V245.38ZM205.618 234.613V230.506H201.51V234.613H205.618ZM216.385 234.613H220.492V230.506H216.385V234.613ZM216.385 234.613V238.721H220.492V234.613H216.385ZM205.618 234.613H201.51V238.721H205.618V234.613ZM205.618 223.846V219.738H201.51V223.846H205.618ZM216.385 223.846H220.492V219.738H216.385V223.846ZM216.385 277.682V281.79H220.492V277.682H216.385ZM205.618 277.682H201.51V281.79H205.618V277.682ZM205.618 266.915V262.808H201.51V266.915H205.618ZM216.385 266.915H220.492V262.808H216.385V266.915ZM248.687 288.45V292.557H252.794V288.45H248.687ZM237.92 288.45H233.812V292.557H237.92V288.45ZM237.92 277.682V273.575H233.812V277.682H237.92ZM248.687 277.682H252.794V273.575H248.687V277.682ZM237.92 288.45V292.557H242.027V288.45H237.92ZM227.152 288.45H223.045V292.557H227.152V288.45ZM227.152 277.682V273.575H223.045V277.682H227.152ZM237.92 277.682H242.027V273.575H237.92V277.682ZM227.152 288.45V292.557H231.26V288.45H227.152ZM216.385 288.45H212.278V292.557H216.385V288.45ZM216.385 277.682V273.575H212.278V277.682H216.385ZM227.152 277.682H231.26V273.575H227.152V277.682ZM227.152 299.217V303.324H231.26V299.217H227.152ZM216.385 299.217H212.278V303.324H216.385V299.217ZM216.385 288.45V284.342H212.278V288.45H216.385ZM227.152 288.45H231.26V284.342H227.152V288.45ZM216.385 299.217V303.324H220.492V299.217H216.385ZM205.618 299.217H201.51V303.324H205.618V299.217ZM205.618 288.45V284.342H201.51V288.45H205.618ZM216.385 288.45H220.492V284.342H216.385V288.45ZM216.385 288.45V292.557H220.492V288.45H216.385ZM205.618 288.45H201.51V292.557H205.618V288.45ZM205.618 277.682V273.575H201.51V277.682H205.618ZM216.385 277.682H220.492V273.575H216.385V277.682ZM237.92 299.217V303.324H242.027V299.217H237.92ZM227.152 299.217H223.045V303.324H227.152V299.217ZM227.152 288.45V284.342H223.045V288.45H227.152ZM237.92 288.45H242.027V284.342H237.92V288.45ZM270.221 288.45V284.342H259.454V288.45V292.557H270.221V288.45ZM259.454 288.45H263.562V277.682H259.454H255.347V288.45H259.454ZM259.454 277.682V281.79H270.221V277.682V273.575H259.454V277.682ZM270.221 277.682H266.114V288.45H270.221H274.329V277.682H270.221ZM270.221 299.217V295.109H259.454V299.217V303.324H270.221V299.217ZM259.454 299.217H263.562V288.45H259.454H255.347V299.217H259.454ZM259.454 288.45V292.557H270.221V288.45V284.342H259.454V288.45ZM270.221 288.45H266.114V299.217H270.221H274.329V288.45H270.221ZM259.454 299.217V295.109H248.687V299.217V303.324H259.454V299.217ZM248.687 299.217H252.794V288.45H248.687H244.579V299.217H248.687ZM248.687 288.45V292.557H259.454V288.45V284.342H248.687V288.45ZM259.454 288.45H255.347V299.217H259.454H263.562V288.45H259.454ZM259.454 288.45V284.342H248.687V288.45V292.557H259.454V288.45ZM248.687 288.45H252.794V277.682H248.687H244.579V288.45H248.687ZM248.687 277.682V281.79H259.454V277.682V273.575H248.687V277.682ZM259.454 277.682H255.347V288.45H259.454H263.562V277.682H259.454ZM259.454 277.682V273.575H248.687V277.682V281.79H259.454V277.682ZM248.687 277.682H252.794V266.915H248.687H244.579V277.682H248.687ZM248.687 266.915V271.022H259.454V266.915V262.808H248.687V266.915ZM259.454 266.915H255.347V277.682H259.454H263.562V266.915H259.454ZM259.454 266.915V262.808H248.687V266.915V271.022H259.454V266.915ZM248.687 266.915H252.794V256.148H248.687H244.579V266.915H248.687ZM248.687 256.148V260.255H259.454V256.148V252.04H248.687V256.148ZM259.454 256.148H255.347V266.915H259.454H263.562V256.148H259.454ZM259.454 256.148V252.04H248.687V256.148V260.255H259.454V256.148ZM248.687 256.148H252.794V245.38H248.687H244.579V256.148H248.687ZM248.687 245.38V249.488H259.454V245.38V241.273H248.687V245.38ZM259.454 245.38H255.347V256.148H259.454H263.562V245.38H259.454ZM270.221 256.148V252.04H259.454V256.148V260.255H270.221V256.148ZM259.454 256.148H263.562V245.38H259.454H255.347V256.148H259.454ZM259.454 245.38V249.488H270.221V245.38V241.273H259.454V245.38ZM270.221 245.38H266.114V256.148H270.221H274.329V245.38H270.221ZM270.221 266.915V262.808H259.454V266.915V271.022H270.221V266.915ZM259.454 266.915H263.562V256.148H259.454H255.347V266.915H259.454ZM259.454 256.148V260.255H270.221V256.148V252.04H259.454V256.148ZM270.221 256.148H266.114V266.915H270.221H274.329V256.148H270.221ZM270.221 277.682V273.575H259.454V277.682V281.79H270.221V277.682ZM259.454 277.682H263.562V266.915H259.454H255.347V277.682H259.454ZM259.454 266.915V271.022H270.221V266.915V262.808H259.454V266.915ZM270.221 266.915H266.114V277.682H270.221H274.329V266.915H270.221ZM270.221 245.38V241.273H259.454V245.38V249.488H270.221V245.38ZM259.454 245.38H263.562V234.613H259.454H255.347V245.38H259.454ZM259.454 234.613V238.721H270.221V234.613V230.506H259.454V234.613ZM270.221 234.613H266.114V245.38H270.221H274.329V234.613H270.221ZM259.454 245.38V241.273H248.687V245.38V249.488H259.454V245.38ZM248.687 245.38H252.794V234.613H248.687H244.579V245.38H248.687ZM248.687 234.613V238.721H259.454V234.613V230.506H248.687V234.613ZM259.454 234.613H255.347V245.38H259.454H263.562V234.613H259.454ZM259.454 234.613V230.506H248.687V234.613V238.721H259.454V234.613ZM248.687 234.613H252.794V223.846H248.687H244.579V234.613H248.687ZM248.687 223.846V227.953H259.454V223.846V219.738H248.687V223.846ZM259.454 223.846H255.347V234.613H259.454H263.562V223.846H259.454ZM259.454 223.846V219.738H248.687V223.846V227.953H259.454V223.846ZM248.687 223.846H252.794V213.079H248.687H244.579V223.846H248.687ZM248.687 213.079V217.186H259.454V213.079V208.971H248.687V213.079ZM259.454 213.079H255.347V223.846H259.454H263.562V213.079H259.454ZM270.221 223.846V219.738H259.454V223.846V227.953H270.221V223.846ZM259.454 223.846H263.562V213.079H259.454H255.347V223.846H259.454ZM259.454 213.079V217.186H270.221V213.079V208.971H259.454V213.079ZM270.221 213.079H266.114V223.846H270.221H274.329V213.079H270.221ZM270.221 234.613V230.506H259.454V234.613V238.721H270.221V234.613ZM259.454 234.613H263.562V223.846H259.454H255.347V234.613H259.454ZM259.454 223.846V227.953H270.221V223.846V219.738H259.454V223.846ZM270.221 223.846H266.114V234.613H270.221H274.329V223.846H270.221ZM216.385 223.846V219.738H205.618V223.846V227.953H216.385V223.846ZM205.618 223.846H209.725V213.079H205.618H201.51V223.846H205.618ZM205.618 213.079V217.186H216.385V213.079V208.971H205.618V213.079ZM216.385 213.079H212.278V223.846H216.385H220.492V213.079H216.385ZM205.618 223.846V219.738H194.85V223.846V227.953H205.618V223.846ZM194.85 223.846H198.958V213.079H194.85H190.743V223.846H194.85ZM194.85 213.079V217.186H205.618V213.079V208.971H194.85V213.079ZM205.618 213.079H201.51V223.846H205.618H209.725V213.079H205.618ZM205.618 234.613V230.506H194.85V234.613V238.721H205.618V234.613ZM194.85 234.613H198.958V223.846H194.85H190.743V234.613H194.85ZM194.85 223.846V227.953H205.618V223.846V219.738H194.85V223.846ZM205.618 223.846H201.51V234.613H205.618H209.725V223.846H205.618ZM205.618 245.38V241.273H194.85V245.38V249.488H205.618V245.38ZM194.85 245.38H198.958V234.613H194.85H190.743V245.38H194.85ZM194.85 234.613V238.721H205.618V234.613V230.506H194.85V234.613ZM205.618 234.613H201.51V245.38H205.618H209.725V234.613H205.618ZM205.618 256.148V252.04H194.85V256.148V260.255H205.618V256.148ZM194.85 256.148H198.958V245.38H194.85H190.743V256.148H194.85ZM194.85 245.38V249.488H205.618V245.38V241.273H194.85V245.38ZM205.618 245.38H201.51V256.148H205.618H209.725V245.38H205.618ZM205.618 266.915V262.808H194.85V266.915V271.022H205.618V266.915ZM194.85 266.915H198.958V256.148H194.85H190.743V266.915H194.85ZM194.85 256.148V260.255H205.618V256.148V252.04H194.85V256.148ZM205.618 256.148H201.51V266.915H205.618H209.725V256.148H205.618ZM205.618 277.682V273.575H194.85V277.682V281.79H205.618V277.682ZM194.85 277.682H198.958V266.915H194.85H190.743V277.682H194.85ZM194.85 266.915V271.022H205.618V266.915V262.808H194.85V266.915ZM205.618 266.915H201.51V277.682H205.618H209.725V266.915H205.618ZM205.618 288.45V284.342H194.85V288.45V292.557H205.618V288.45ZM194.85 288.45H198.958V277.682H194.85H190.743V288.45H194.85ZM194.85 277.682V281.79H205.618V277.682V273.575H194.85V277.682ZM205.618 277.682H201.51V288.45H205.618H209.725V277.682H205.618ZM216.385 266.915V262.808H205.618V266.915V271.022H216.385V266.915ZM205.618 266.915H209.725V256.148H205.618H201.51V266.915H205.618ZM205.618 256.148V260.255H216.385V256.148V252.04H205.618V256.148ZM216.385 256.148H212.278V266.915H216.385H220.492V256.148H216.385ZM216.385 256.148V252.04H205.618V256.148V260.255H216.385V256.148ZM205.618 256.148H209.725V245.38H205.618H201.51V256.148H205.618ZM205.618 245.38V249.488H216.385V245.38V241.273H205.618V245.38ZM216.385 245.38H212.278V256.148H216.385H220.492V245.38H216.385ZM216.385 245.38V241.273H205.618V245.38V249.488H216.385V245.38ZM205.618 245.38H209.725V234.613H205.618H201.51V245.38H205.618ZM205.618 234.613V238.721H216.385V234.613V230.506H205.618V234.613ZM216.385 234.613H212.278V245.38H216.385H220.492V234.613H216.385ZM216.385 234.613V230.506H205.618V234.613V238.721H216.385V234.613ZM205.618 234.613H209.725V223.846H205.618H201.51V234.613H205.618ZM205.618 223.846V227.953H216.385V223.846V219.738H205.618V223.846ZM216.385 223.846H212.278V234.613H216.385H220.492V223.846H216.385ZM216.385 277.682V273.575H205.618V277.682V281.79H216.385V277.682ZM205.618 277.682H209.725V266.915H205.618H201.51V277.682H205.618ZM205.618 266.915V271.022H216.385V266.915V262.808H205.618V266.915ZM216.385 266.915H212.278V277.682H216.385H220.492V266.915H216.385ZM248.687 288.45V284.342H237.92V288.45V292.557H248.687V288.45ZM237.92 288.45H242.027V277.682H237.92H233.812V288.45H237.92ZM237.92 277.682V281.79H248.687V277.682V273.575H237.92V277.682ZM248.687 277.682H244.579V288.45H248.687H252.794V277.682H248.687ZM237.92 288.45V284.342H227.152V288.45V292.557H237.92V288.45ZM227.152 288.45H231.26V277.682H227.152H223.045V288.45H227.152ZM227.152 277.682V281.79H237.92V277.682V273.575H227.152V277.682ZM237.92 277.682H233.812V288.45H237.92H242.027V277.682H237.92ZM227.152 288.45V284.342H216.385V288.45V292.557H227.152V288.45ZM216.385 288.45H220.492V277.682H216.385H212.278V288.45H216.385ZM216.385 277.682V281.79H227.152V277.682V273.575H216.385V277.682ZM227.152 277.682H223.045V288.45H227.152H231.26V277.682H227.152ZM227.152 299.217V295.109H216.385V299.217V303.324H227.152V299.217ZM216.385 299.217H220.492V288.45H216.385H212.278V299.217H216.385ZM216.385 288.45V292.557H227.152V288.45V284.342H216.385V288.45ZM227.152 288.45H223.045V299.217H227.152H231.26V288.45H227.152ZM216.385 299.217V295.109H205.618V299.217V303.324H216.385V299.217ZM205.618 299.217H209.725V288.45H205.618H201.51V299.217H205.618ZM205.618 288.45V292.557H216.385V288.45V284.342H205.618V288.45ZM216.385 288.45H212.278V299.217H216.385H220.492V288.45H216.385ZM216.385 288.45V284.342H205.618V288.45V292.557H216.385V288.45ZM205.618 288.45H209.725V277.682H205.618H201.51V288.45H205.618ZM205.618 277.682V281.79H216.385V277.682V273.575H205.618V277.682ZM216.385 277.682H212.278V288.45H216.385H220.492V277.682H216.385ZM237.92 299.217V295.109H227.152V299.217V303.324H237.92V299.217ZM227.152 299.217H231.26V288.45H227.152H223.045V299.217H227.152ZM227.152 288.45V292.557H237.92V288.45V284.342H227.152V288.45ZM237.92 288.45H233.812V299.217H237.92H242.027V288.45H237.92ZM281.017 223.846V219.738H276.909V223.846H281.017ZM291.784 223.846H295.891V219.738H291.784V223.846ZM291.784 234.613V238.721H295.891V234.613H291.784ZM281.017 234.613H276.909V238.721H281.017V234.613ZM281.017 213.079V208.971H276.909V213.079H281.017ZM291.784 213.079H295.891V208.971H291.784V213.079ZM291.784 223.846V227.953H295.891V223.846H291.784ZM281.017 223.846H276.909V227.953H281.017V223.846ZM291.784 213.079V208.971H287.677V213.079H291.784ZM302.551 213.079H306.659V208.971H302.551V213.079ZM302.551 223.846V227.953H306.659V223.846H302.551ZM291.784 223.846H287.677V227.953H291.784V223.846ZM291.784 223.846V219.738H287.677V223.846H291.784ZM302.551 223.846H306.659V219.738H302.551V223.846ZM302.551 234.613V238.721H306.659V234.613H302.551ZM291.784 234.613H287.677V238.721H291.784V234.613ZM291.784 234.613V230.506H287.677V234.613H291.784ZM302.551 234.613H306.659V230.506H302.551V234.613ZM302.551 245.38V249.488H306.659V245.38H302.551ZM291.784 245.38H287.677V249.488H291.784V245.38ZM291.784 245.38V241.273H287.677V245.38H291.784ZM302.551 245.38H306.659V241.273H302.551V245.38ZM302.551 256.148V260.255H306.659V256.148H302.551ZM291.784 256.148H287.677V260.255H291.784V256.148ZM291.784 256.148V252.04H287.677V256.148H291.784ZM302.551 256.148H306.659V252.04H302.551V256.148ZM302.551 266.915V271.022H306.659V266.915H302.551ZM291.784 266.915H287.677V271.022H291.784V266.915ZM281.017 256.148V252.04H276.909V256.148H281.017ZM291.784 256.148H295.891V252.04H291.784V256.148ZM291.784 266.915V271.022H295.891V266.915H291.784ZM281.017 266.915H276.909V271.022H281.017V266.915ZM281.017 245.38V241.273H276.909V245.38H281.017ZM291.784 245.38H295.891V241.273H291.784V245.38ZM291.784 256.148V260.255H295.891V256.148H291.784ZM281.017 256.148H276.909V260.255H281.017V256.148ZM281.017 234.613V230.506H276.909V234.613H281.017ZM291.784 234.613H295.891V230.506H291.784V234.613ZM291.784 245.38V249.488H295.891V245.38H291.784ZM281.017 245.38H276.909V249.488H281.017V245.38ZM281.017 266.915V262.808H276.909V266.915H281.017ZM291.784 266.915H295.891V262.808H291.784V266.915ZM291.784 277.682V281.79H295.891V277.682H291.784ZM281.017 277.682H276.909V281.79H281.017V277.682ZM291.784 266.915V262.808H287.677V266.915H291.784ZM302.551 266.915H306.659V262.808H302.551V266.915ZM302.551 277.682V281.79H306.659V277.682H302.551ZM291.784 277.682H287.677V281.79H291.784V277.682ZM291.784 277.682V273.575H287.677V277.682H291.784ZM302.551 277.682H306.659V273.575H302.551V277.682ZM302.551 288.45V292.557H306.659V288.45H302.551ZM291.784 288.45H287.677V292.557H291.784V288.45ZM291.784 288.45V284.342H287.677V288.45H291.784ZM302.551 288.45H306.659V284.342H302.551V288.45ZM302.551 299.217V303.324H306.659V299.217H302.551ZM291.784 299.217H287.677V303.324H291.784V299.217ZM281.017 288.45V284.342H276.909V288.45H281.017ZM291.784 288.45H295.891V284.342H291.784V288.45ZM291.784 299.217V303.324H295.891V299.217H291.784ZM281.017 299.217H276.909V303.324H281.017V299.217ZM281.017 277.682V273.575H276.909V277.682H281.017ZM291.784 277.682H295.891V273.575H291.784V277.682ZM291.784 288.45V292.557H295.891V288.45H291.784ZM281.017 288.45H276.909V292.557H281.017V288.45ZM324.086 288.45V284.342H319.979V288.45H324.086ZM334.853 288.45H338.961V284.342H334.853V288.45ZM334.853 299.217V303.324H338.961V299.217H334.853ZM324.086 299.217H319.979V303.324H324.086V299.217ZM334.853 288.45V284.342H330.746V288.45H334.853ZM345.621 288.45H349.728V284.342H345.621V288.45ZM345.621 299.217V303.324H349.728V299.217H345.621ZM334.853 299.217H330.746V303.324H334.853V299.217ZM334.853 277.682V273.575H330.746V277.682H334.853ZM345.621 277.682H349.728V273.575H345.621V277.682ZM345.621 288.45V292.557H349.728V288.45H345.621ZM334.853 288.45H330.746V292.557H334.853V288.45ZM334.853 266.915V262.808H330.746V266.915H334.853ZM345.621 266.915H349.728V262.808H345.621V266.915ZM345.621 277.682V281.79H349.728V277.682H345.621ZM334.853 277.682H330.746V281.79H334.853V277.682ZM334.853 256.148V252.04H330.746V256.148H334.853ZM345.621 256.148H349.728V252.04H345.621V256.148ZM345.621 266.915V271.022H349.728V266.915H345.621ZM334.853 266.915H330.746V271.022H334.853V266.915ZM334.853 245.38V241.273H330.746V245.38H334.853ZM345.621 245.38H349.728V241.273H345.621V245.38ZM345.621 256.148V260.255H349.728V256.148H345.621ZM334.853 256.148H330.746V260.255H334.853V256.148ZM334.853 234.613V230.506H330.746V234.613H334.853ZM345.621 234.613H349.728V230.506H345.621V234.613ZM345.621 245.38V249.488H349.728V245.38H345.621ZM334.853 245.38H330.746V249.488H334.853V245.38ZM334.853 223.846V219.738H330.746V223.846H334.853ZM345.621 223.846H349.728V219.738H345.621V223.846ZM345.621 234.613V238.721H349.728V234.613H345.621ZM334.853 234.613H330.746V238.721H334.853V234.613ZM324.086 245.38V241.273H319.979V245.38H324.086ZM334.853 245.38H338.961V241.273H334.853V245.38ZM334.853 256.148V260.255H338.961V256.148H334.853ZM324.086 256.148H319.979V260.255H324.086V256.148ZM324.086 256.148V252.04H319.979V256.148H324.086ZM334.853 256.148H338.961V252.04H334.853V256.148ZM334.853 266.915V271.022H338.961V266.915H334.853ZM324.086 266.915H319.979V271.022H324.086V266.915ZM324.086 266.915V262.808H319.979V266.915H324.086ZM334.853 266.915H338.961V262.808H334.853V266.915ZM334.853 277.682V281.79H338.961V277.682H334.853ZM324.086 277.682H319.979V281.79H324.086V277.682ZM324.086 277.682V273.575H319.979V277.682H324.086ZM334.853 277.682H338.961V273.575H334.853V277.682ZM334.853 288.45V292.557H338.961V288.45H334.853ZM324.086 288.45H319.979V292.557H324.086V288.45ZM324.086 234.613V230.506H319.979V234.613H324.086ZM334.853 234.613H338.961V230.506H334.853V234.613ZM334.853 245.38V249.488H338.961V245.38H334.853ZM324.086 245.38H319.979V249.488H324.086V245.38ZM302.551 223.846V219.738H298.444V223.846H302.551ZM313.319 223.846H317.426V219.738H313.319V223.846ZM313.319 234.613V238.721H317.426V234.613H313.319ZM302.551 234.613H298.444V238.721H302.551V234.613ZM313.319 223.846V219.738H309.211V223.846H313.319ZM324.086 223.846H328.193V219.738H324.086V223.846ZM324.086 234.613V238.721H328.193V234.613H324.086ZM313.319 234.613H309.211V238.721H313.319V234.613ZM324.086 213.079V208.971H319.979V213.079H324.086ZM334.853 213.079H338.961V208.971H334.853V213.079ZM334.853 223.846V227.953H338.961V223.846H334.853ZM324.086 223.846H319.979V227.953H324.086V223.846ZM324.086 223.846V219.738H319.979V223.846H324.086ZM334.853 223.846H338.961V219.738H334.853V223.846ZM334.853 234.613V238.721H338.961V234.613H334.853ZM324.086 234.613H319.979V238.721H324.086V234.613ZM313.319 213.079V208.971H309.211V213.079H313.319ZM324.086 213.079H328.193V208.971H324.086V213.079ZM324.086 223.846V227.953H328.193V223.846H324.086ZM313.319 223.846H309.211V227.953H313.319V223.846ZM367.155 288.45V284.342H363.048V288.45H367.155ZM377.922 288.45H382.03V284.342H377.922V288.45ZM377.922 299.217V303.324H382.03V299.217H377.922ZM367.155 299.217H363.048V303.324H367.155V299.217ZM377.922 288.45V284.342H373.815V288.45H377.922ZM388.69 288.45H392.797V284.342H388.69V288.45ZM388.69 299.217V303.324H392.797V299.217H388.69ZM377.922 299.217H373.815V303.324H377.922V299.217ZM377.922 277.682V273.575H373.815V277.682H377.922ZM388.69 277.682H392.797V273.575H388.69V277.682ZM388.69 288.45V292.557H392.797V288.45H388.69ZM377.922 288.45H373.815V292.557H377.922V288.45ZM377.922 266.915V262.808H373.815V266.915H377.922ZM388.69 266.915H392.797V262.808H388.69V266.915ZM388.69 277.682V281.79H392.797V277.682H388.69ZM377.922 277.682H373.815V281.79H377.922V277.682ZM377.922 256.148V252.04H373.815V256.148H377.922ZM388.69 256.148H392.797V252.04H388.69V256.148ZM388.69 266.915V271.022H392.797V266.915H388.69ZM377.922 266.915H373.815V271.022H377.922V266.915ZM377.922 245.38V241.273H373.815V245.38H377.922ZM388.69 245.38H392.797V241.273H388.69V245.38ZM388.69 256.148V260.255H392.797V256.148H388.69ZM377.922 256.148H373.815V260.255H377.922V256.148ZM377.922 234.613V230.506H373.815V234.613H377.922ZM388.69 234.613H392.797V230.506H388.69V234.613ZM388.69 245.38V249.488H392.797V245.38H388.69ZM377.922 245.38H373.815V249.488H377.922V245.38ZM377.922 223.846V219.738H373.815V223.846H377.922ZM388.69 223.846H392.797V219.738H388.69V223.846ZM388.69 234.613V238.721H392.797V234.613H388.69ZM377.922 234.613H373.815V238.721H377.922V234.613ZM367.155 245.38V241.273H363.048V245.38H367.155ZM377.922 245.38H382.03V241.273H377.922V245.38ZM377.922 256.148V260.255H382.03V256.148H377.922ZM367.155 256.148H363.048V260.255H367.155V256.148ZM367.155 256.148V252.04H363.048V256.148H367.155ZM377.922 256.148H382.03V252.04H377.922V256.148ZM377.922 266.915V271.022H382.03V266.915H377.922ZM367.155 266.915H363.048V271.022H367.155V266.915ZM367.155 266.915V262.808H363.048V266.915H367.155ZM377.922 266.915H382.03V262.808H377.922V266.915ZM377.922 277.682V281.79H382.03V277.682H377.922ZM367.155 277.682H363.048V281.79H367.155V277.682ZM367.155 277.682V273.575H363.048V277.682H367.155ZM377.922 277.682H382.03V273.575H377.922V277.682ZM377.922 288.45V292.557H382.03V288.45H377.922ZM367.155 288.45H363.048V292.557H367.155V288.45ZM367.155 234.613V230.506H363.048V234.613H367.155ZM377.922 234.613H382.03V230.506H377.922V234.613ZM377.922 245.38V249.488H382.03V245.38H377.922ZM367.155 245.38H363.048V249.488H367.155V245.38ZM345.621 223.846V219.738H341.513V223.846H345.621ZM356.388 223.846H360.495V219.738H356.388V223.846ZM356.388 234.613V238.721H360.495V234.613H356.388ZM345.621 234.613H341.513V238.721H345.621V234.613ZM356.388 223.846V219.738H352.28V223.846H356.388ZM367.155 223.846H371.263V219.738H367.155V223.846ZM367.155 234.613V238.721H371.263V234.613H367.155ZM356.388 234.613H352.28V238.721H356.388V234.613ZM367.155 213.079V208.971H363.048V213.079H367.155ZM377.922 213.079H382.03V208.971H377.922V213.079ZM377.922 223.846V227.953H382.03V223.846H377.922ZM367.155 223.846H363.048V227.953H367.155V223.846ZM367.155 223.846V219.738H363.048V223.846H367.155ZM377.922 223.846H382.03V219.738H377.922V223.846ZM377.922 234.613V238.721H382.03V234.613H377.922ZM367.155 234.613H363.048V238.721H367.155V234.613ZM356.388 213.079V208.971H352.28V213.079H356.388ZM367.155 213.079H371.263V208.971H367.155V213.079ZM367.155 223.846V227.953H371.263V223.846H367.155ZM356.388 223.846H352.28V227.953H356.388V223.846ZM281.017 223.846V227.953H291.784V223.846V219.738H281.017V223.846ZM291.784 223.846H287.677V234.613H291.784H295.891V223.846H291.784ZM291.784 234.613V230.506H281.017V234.613V238.721H291.784V234.613ZM281.017 234.613H285.124V223.846H281.017H276.909V234.613H281.017ZM281.017 213.079V217.186H291.784V213.079V208.971H281.017V213.079ZM291.784 213.079H287.677V223.846H291.784H295.891V213.079H291.784ZM291.784 223.846V219.738H281.017V223.846V227.953H291.784V223.846ZM281.017 223.846H285.124V213.079H281.017H276.909V223.846H281.017ZM291.784 213.079V217.186H302.551V213.079V208.971H291.784V213.079ZM302.551 213.079H298.444V223.846H302.551H306.659V213.079H302.551ZM302.551 223.846V219.738H291.784V223.846V227.953H302.551V223.846ZM291.784 223.846H295.891V213.079H291.784H287.677V223.846H291.784ZM291.784 223.846V227.953H302.551V223.846V219.738H291.784V223.846ZM302.551 223.846H298.444V234.613H302.551H306.659V223.846H302.551ZM302.551 234.613V230.506H291.784V234.613V238.721H302.551V234.613ZM291.784 234.613H295.891V223.846H291.784H287.677V234.613H291.784ZM291.784 234.613V238.721H302.551V234.613V230.506H291.784V234.613ZM302.551 234.613H298.444V245.38H302.551H306.659V234.613H302.551ZM302.551 245.38V241.273H291.784V245.38V249.488H302.551V245.38ZM291.784 245.38H295.891V234.613H291.784H287.677V245.38H291.784ZM291.784 245.38V249.488H302.551V245.38V241.273H291.784V245.38ZM302.551 245.38H298.444V256.148H302.551H306.659V245.38H302.551ZM302.551 256.148V252.04H291.784V256.148V260.255H302.551V256.148ZM291.784 256.148H295.891V245.38H291.784H287.677V256.148H291.784ZM291.784 256.148V260.255H302.551V256.148V252.04H291.784V256.148ZM302.551 256.148H298.444V266.915H302.551H306.659V256.148H302.551ZM302.551 266.915V262.808H291.784V266.915V271.022H302.551V266.915ZM291.784 266.915H295.891V256.148H291.784H287.677V266.915H291.784ZM281.017 256.148V260.255H291.784V256.148V252.04H281.017V256.148ZM291.784 256.148H287.677V266.915H291.784H295.891V256.148H291.784ZM291.784 266.915V262.808H281.017V266.915V271.022H291.784V266.915ZM281.017 266.915H285.124V256.148H281.017H276.909V266.915H281.017ZM281.017 245.38V249.488H291.784V245.38V241.273H281.017V245.38ZM291.784 245.38H287.677V256.148H291.784H295.891V245.38H291.784ZM291.784 256.148V252.04H281.017V256.148V260.255H291.784V256.148ZM281.017 256.148H285.124V245.38H281.017H276.909V256.148H281.017ZM281.017 234.613V238.721H291.784V234.613V230.506H281.017V234.613ZM291.784 234.613H287.677V245.38H291.784H295.891V234.613H291.784ZM291.784 245.38V241.273H281.017V245.38V249.488H291.784V245.38ZM281.017 245.38H285.124V234.613H281.017H276.909V245.38H281.017ZM281.017 266.915V271.022H291.784V266.915V262.808H281.017V266.915ZM291.784 266.915H287.677V277.682H291.784H295.891V266.915H291.784ZM291.784 277.682V273.575H281.017V277.682V281.79H291.784V277.682ZM281.017 277.682H285.124V266.915H281.017H276.909V277.682H281.017ZM291.784 266.915V271.022H302.551V266.915V262.808H291.784V266.915ZM302.551 266.915H298.444V277.682H302.551H306.659V266.915H302.551ZM302.551 277.682V273.575H291.784V277.682V281.79H302.551V277.682ZM291.784 277.682H295.891V266.915H291.784H287.677V277.682H291.784ZM291.784 277.682V281.79H302.551V277.682V273.575H291.784V277.682ZM302.551 277.682H298.444V288.45H302.551H306.659V277.682H302.551ZM302.551 288.45V284.342H291.784V288.45V292.557H302.551V288.45ZM291.784 288.45H295.891V277.682H291.784H287.677V288.45H291.784ZM291.784 288.45V292.557H302.551V288.45V284.342H291.784V288.45ZM302.551 288.45H298.444V299.217H302.551H306.659V288.45H302.551ZM302.551 299.217V295.109H291.784V299.217V303.324H302.551V299.217ZM291.784 299.217H295.891V288.45H291.784H287.677V299.217H291.784ZM281.017 288.45V292.557H291.784V288.45V284.342H281.017V288.45ZM291.784 288.45H287.677V299.217H291.784H295.891V288.45H291.784ZM291.784 299.217V295.109H281.017V299.217V303.324H291.784V299.217ZM281.017 299.217H285.124V288.45H281.017H276.909V299.217H281.017ZM281.017 277.682V281.79H291.784V277.682V273.575H281.017V277.682ZM291.784 277.682H287.677V288.45H291.784H295.891V277.682H291.784ZM291.784 288.45V284.342H281.017V288.45V292.557H291.784V288.45ZM281.017 288.45H285.124V277.682H281.017H276.909V288.45H281.017ZM324.086 288.45V292.557H334.853V288.45V284.342H324.086V288.45ZM334.853 288.45H330.746V299.217H334.853H338.961V288.45H334.853ZM334.853 299.217V295.109H324.086V299.217V303.324H334.853V299.217ZM324.086 299.217H328.193V288.45H324.086H319.979V299.217H324.086ZM334.853 288.45V292.557H345.621V288.45V284.342H334.853V288.45ZM345.621 288.45H341.513V299.217H345.621H349.728V288.45H345.621ZM345.621 299.217V295.109H334.853V299.217V303.324H345.621V299.217ZM334.853 299.217H338.961V288.45H334.853H330.746V299.217H334.853ZM334.853 277.682V281.79H345.621V277.682V273.575H334.853V277.682ZM345.621 277.682H341.513V288.45H345.621H349.728V277.682H345.621ZM345.621 288.45V284.342H334.853V288.45V292.557H345.621V288.45ZM334.853 288.45H338.961V277.682H334.853H330.746V288.45H334.853ZM334.853 266.915V271.022H345.621V266.915V262.808H334.853V266.915ZM345.621 266.915H341.513V277.682H345.621H349.728V266.915H345.621ZM345.621 277.682V273.575H334.853V277.682V281.79H345.621V277.682ZM334.853 277.682H338.961V266.915H334.853H330.746V277.682H334.853ZM334.853 256.148V260.255H345.621V256.148V252.04H334.853V256.148ZM345.621 256.148H341.513V266.915H345.621H349.728V256.148H345.621ZM345.621 266.915V262.808H334.853V266.915V271.022H345.621V266.915ZM334.853 266.915H338.961V256.148H334.853H330.746V266.915H334.853ZM334.853 245.38V249.488H345.621V245.38V241.273H334.853V245.38ZM345.621 245.38H341.513V256.148H345.621H349.728V245.38H345.621ZM345.621 256.148V252.04H334.853V256.148V260.255H345.621V256.148ZM334.853 256.148H338.961V245.38H334.853H330.746V256.148H334.853ZM334.853 234.613V238.721H345.621V234.613V230.506H334.853V234.613ZM345.621 234.613H341.513V245.38H345.621H349.728V234.613H345.621ZM345.621 245.38V241.273H334.853V245.38V249.488H345.621V245.38ZM334.853 245.38H338.961V234.613H334.853H330.746V245.38H334.853ZM334.853 223.846V227.953H345.621V223.846V219.738H334.853V223.846ZM345.621 223.846H341.513V234.613H345.621H349.728V223.846H345.621ZM345.621 234.613V230.506H334.853V234.613V238.721H345.621V234.613ZM334.853 234.613H338.961V223.846H334.853H330.746V234.613H334.853ZM324.086 245.38V249.488H334.853V245.38V241.273H324.086V245.38ZM334.853 245.38H330.746V256.148H334.853H338.961V245.38H334.853ZM334.853 256.148V252.04H324.086V256.148V260.255H334.853V256.148ZM324.086 256.148H328.193V245.38H324.086H319.979V256.148H324.086ZM324.086 256.148V260.255H334.853V256.148V252.04H324.086V256.148ZM334.853 256.148H330.746V266.915H334.853H338.961V256.148H334.853ZM334.853 266.915V262.808H324.086V266.915V271.022H334.853V266.915ZM324.086 266.915H328.193V256.148H324.086H319.979V266.915H324.086ZM324.086 266.915V271.022H334.853V266.915V262.808H324.086V266.915ZM334.853 266.915H330.746V277.682H334.853H338.961V266.915H334.853ZM334.853 277.682V273.575H324.086V277.682V281.79H334.853V277.682ZM324.086 277.682H328.193V266.915H324.086H319.979V277.682H324.086ZM324.086 277.682V281.79H334.853V277.682V273.575H324.086V277.682ZM334.853 277.682H330.746V288.45H334.853H338.961V277.682H334.853ZM334.853 288.45V284.342H324.086V288.45V292.557H334.853V288.45ZM324.086 288.45H328.193V277.682H324.086H319.979V288.45H324.086ZM324.086 234.613V238.721H334.853V234.613V230.506H324.086V234.613ZM334.853 234.613H330.746V245.38H334.853H338.961V234.613H334.853ZM334.853 245.38V241.273H324.086V245.38V249.488H334.853V245.38ZM324.086 245.38H328.193V234.613H324.086H319.979V245.38H324.086ZM302.551 223.846V227.953H313.319V223.846V219.738H302.551V223.846ZM313.319 223.846H309.211V234.613H313.319H317.426V223.846H313.319ZM313.319 234.613V230.506H302.551V234.613V238.721H313.319V234.613ZM302.551 234.613H306.659V223.846H302.551H298.444V234.613H302.551ZM313.319 223.846V227.953H324.086V223.846V219.738H313.319V223.846ZM324.086 223.846H319.979V234.613H324.086H328.193V223.846H324.086ZM324.086 234.613V230.506H313.319V234.613V238.721H324.086V234.613ZM313.319 234.613H317.426V223.846H313.319H309.211V234.613H313.319ZM324.086 213.079V217.186H334.853V213.079V208.971H324.086V213.079ZM334.853 213.079H330.746V223.846H334.853H338.961V213.079H334.853ZM334.853 223.846V219.738H324.086V223.846V227.953H334.853V223.846ZM324.086 223.846H328.193V213.079H324.086H319.979V223.846H324.086ZM324.086 223.846V227.953H334.853V223.846V219.738H324.086V223.846ZM334.853 223.846H330.746V234.613H334.853H338.961V223.846H334.853ZM334.853 234.613V230.506H324.086V234.613V238.721H334.853V234.613ZM324.086 234.613H328.193V223.846H324.086H319.979V234.613H324.086ZM313.319 213.079V217.186H324.086V213.079V208.971H313.319V213.079ZM324.086 213.079H319.979V223.846H324.086H328.193V213.079H324.086ZM324.086 223.846V219.738H313.319V223.846V227.953H324.086V223.846ZM313.319 223.846H317.426V213.079H313.319H309.211V223.846H313.319ZM367.155 288.45V292.557H377.922V288.45V284.342H367.155V288.45ZM377.922 288.45H373.815V299.217H377.922H382.03V288.45H377.922ZM377.922 299.217V295.109H367.155V299.217V303.324H377.922V299.217ZM367.155 299.217H371.263V288.45H367.155H363.048V299.217H367.155ZM377.922 288.45V292.557H388.69V288.45V284.342H377.922V288.45ZM388.69 288.45H384.582V299.217H388.69H392.797V288.45H388.69ZM388.69 299.217V295.109H377.922V299.217V303.324H388.69V299.217ZM377.922 299.217H382.03V288.45H377.922H373.815V299.217H377.922ZM377.922 277.682V281.79H388.69V277.682V273.575H377.922V277.682ZM388.69 277.682H384.582V288.45H388.69H392.797V277.682H388.69ZM388.69 288.45V284.342H377.922V288.45V292.557H388.69V288.45ZM377.922 288.45H382.03V277.682H377.922H373.815V288.45H377.922ZM377.922 266.915V271.022H388.69V266.915V262.808H377.922V266.915ZM388.69 266.915H384.582V277.682H388.69H392.797V266.915H388.69ZM388.69 277.682V273.575H377.922V277.682V281.79H388.69V277.682ZM377.922 277.682H382.03V266.915H377.922H373.815V277.682H377.922ZM377.922 256.148V260.255H388.69V256.148V252.04H377.922V256.148ZM388.69 256.148H384.582V266.915H388.69H392.797V256.148H388.69ZM388.69 266.915V262.808H377.922V266.915V271.022H388.69V266.915ZM377.922 266.915H382.03V256.148H377.922H373.815V266.915H377.922ZM377.922 245.38V249.488H388.69V245.38V241.273H377.922V245.38ZM388.69 245.38H384.582V256.148H388.69H392.797V245.38H388.69ZM388.69 256.148V252.04H377.922V256.148V260.255H388.69V256.148ZM377.922 256.148H382.03V245.38H377.922H373.815V256.148H377.922ZM377.922 234.613V238.721H388.69V234.613V230.506H377.922V234.613ZM388.69 234.613H384.582V245.38H388.69H392.797V234.613H388.69ZM388.69 245.38V241.273H377.922V245.38V249.488H388.69V245.38ZM377.922 245.38H382.03V234.613H377.922H373.815V245.38H377.922ZM377.922 223.846V227.953H388.69V223.846V219.738H377.922V223.846ZM388.69 223.846H384.582V234.613H388.69H392.797V223.846H388.69ZM388.69 234.613V230.506H377.922V234.613V238.721H388.69V234.613ZM377.922 234.613H382.03V223.846H377.922H373.815V234.613H377.922ZM367.155 245.38V249.488H377.922V245.38V241.273H367.155V245.38ZM377.922 245.38H373.815V256.148H377.922H382.03V245.38H377.922ZM377.922 256.148V252.04H367.155V256.148V260.255H377.922V256.148ZM367.155 256.148H371.263V245.38H367.155H363.048V256.148H367.155ZM367.155 256.148V260.255H377.922V256.148V252.04H367.155V256.148ZM377.922 256.148H373.815V266.915H377.922H382.03V256.148H377.922ZM377.922 266.915V262.808H367.155V266.915V271.022H377.922V266.915ZM367.155 266.915H371.263V256.148H367.155H363.048V266.915H367.155ZM367.155 266.915V271.022H377.922V266.915V262.808H367.155V266.915ZM377.922 266.915H373.815V277.682H377.922H382.03V266.915H377.922ZM377.922 277.682V273.575H367.155V277.682V281.79H377.922V277.682ZM367.155 277.682H371.263V266.915H367.155H363.048V277.682H367.155ZM367.155 277.682V281.79H377.922V277.682V273.575H367.155V277.682ZM377.922 277.682H373.815V288.45H377.922H382.03V277.682H377.922ZM377.922 288.45V284.342H367.155V288.45V292.557H377.922V288.45ZM367.155 288.45H371.263V277.682H367.155H363.048V288.45H367.155ZM367.155 234.613V238.721H377.922V234.613V230.506H367.155V234.613ZM377.922 234.613H373.815V245.38H377.922H382.03V234.613H377.922ZM377.922 245.38V241.273H367.155V245.38V249.488H377.922V245.38ZM367.155 245.38H371.263V234.613H367.155H363.048V245.38H367.155ZM345.621 223.846V227.953H356.388V223.846V219.738H345.621V223.846ZM356.388 223.846H352.28V234.613H356.388H360.495V223.846H356.388ZM356.388 234.613V230.506H345.621V234.613V238.721H356.388V234.613ZM345.621 234.613H349.728V223.846H345.621H341.513V234.613H345.621ZM356.388 223.846V227.953H367.155V223.846V219.738H356.388V223.846ZM367.155 223.846H363.048V234.613H367.155H371.263V223.846H367.155ZM367.155 234.613V230.506H356.388V234.613V238.721H367.155V234.613ZM356.388 234.613H360.495V223.846H356.388H352.28V234.613H356.388ZM367.155 213.079V217.186H377.922V213.079V208.971H367.155V213.079ZM377.922 213.079H373.815V223.846H377.922H382.03V213.079H377.922ZM377.922 223.846V219.738H367.155V223.846V227.953H377.922V223.846ZM367.155 223.846H371.263V213.079H367.155H363.048V223.846H367.155ZM367.155 223.846V227.953H377.922V223.846V219.738H367.155V223.846ZM377.922 223.846H373.815V234.613H377.922H382.03V223.846H377.922ZM377.922 234.613V230.506H367.155V234.613V238.721H377.922V234.613ZM367.155 234.613H371.263V223.846H367.155H363.048V234.613H367.155ZM356.388 213.079V217.186H367.155V213.079V208.971H356.388V213.079ZM367.155 213.079H363.048V223.846H367.155H371.263V213.079H367.155ZM367.155 223.846V219.738H356.388V223.846V227.953H367.155V223.846ZM356.388 223.846H360.495V213.079H356.388H352.28V223.846H356.388ZM399.373 191.544V187.437H395.265V191.544H399.373ZM410.14 191.544H414.248V187.437H410.14V191.544ZM410.14 202.311V206.419H414.248V202.311H410.14ZM399.373 202.311H395.265V206.419H399.373V202.311ZM410.14 191.544V187.437H406.033V191.544H410.14ZM420.907 191.544H425.015V187.437H420.907V191.544ZM420.907 202.311V206.419H425.015V202.311H420.907ZM410.14 202.311H406.033V206.419H410.14V202.311ZM410.14 202.311V198.204H406.033V202.311H410.14ZM420.907 202.311H425.015V198.204H420.907V202.311ZM420.907 213.079V217.186H425.015V213.079H420.907ZM410.14 213.079H406.033V217.186H410.14V213.079ZM410.14 213.079V208.971H406.033V213.079H410.14ZM420.907 213.079H425.015V208.971H420.907V213.079ZM420.907 223.846V227.953H425.015V223.846H420.907ZM410.14 223.846H406.033V227.953H410.14V223.846ZM410.14 223.846V219.738H406.033V223.846H410.14ZM420.907 223.846H425.015V219.738H420.907V223.846ZM420.907 234.613V238.721H425.015V234.613H420.907ZM410.14 234.613H406.033V238.721H410.14V234.613ZM410.14 234.613V230.506H406.033V234.613H410.14ZM420.907 234.613H425.015V230.506H420.907V234.613ZM420.907 245.38V249.488H425.015V245.38H420.907ZM410.14 245.38H406.033V249.488H410.14V245.38ZM410.14 245.38V241.273H406.033V245.38H410.14ZM420.907 245.38H425.015V241.273H420.907V245.38ZM420.907 256.148V260.255H425.015V256.148H420.907ZM410.14 256.148H406.033V260.255H410.14V256.148ZM399.373 245.38V241.273H395.265V245.38H399.373ZM410.14 245.38H414.248V241.273H410.14V245.38ZM410.14 256.148V260.255H414.248V256.148H410.14ZM399.373 256.148H395.265V260.255H399.373V256.148ZM399.373 256.148V252.04H395.265V256.148H399.373ZM410.14 256.148H414.248V252.04H410.14V256.148ZM410.14 266.915V271.022H414.248V266.915H410.14ZM399.373 266.915H395.265V271.022H399.373V266.915ZM399.373 266.915V262.808H395.265V266.915H399.373ZM410.14 266.915H414.248V262.808H410.14V266.915ZM410.14 277.682V281.79H414.248V277.682H410.14ZM399.373 277.682H395.265V281.79H399.373V277.682ZM399.373 277.682V273.575H395.265V277.682H399.373ZM410.14 277.682H414.248V273.575H410.14V277.682ZM410.14 288.45V292.557H414.248V288.45H410.14ZM399.373 288.45H395.265V292.557H399.373V288.45ZM399.373 288.45V284.342H395.265V288.45H399.373ZM410.14 288.45H414.248V284.342H410.14V288.45ZM410.14 299.217V303.324H414.248V299.217H410.14ZM399.373 299.217H395.265V303.324H399.373V299.217ZM410.14 288.45V284.342H406.033V288.45H410.14ZM420.907 288.45H425.015V284.342H420.907V288.45ZM420.907 299.217V303.324H425.015V299.217H420.907ZM410.14 299.217H406.033V303.324H410.14V299.217ZM410.14 277.682V273.575H406.033V277.682H410.14ZM420.907 277.682H425.015V273.575H420.907V277.682ZM420.907 288.45V292.557H425.015V288.45H420.907ZM410.14 288.45H406.033V292.557H410.14V288.45ZM410.14 266.915V262.808H406.033V266.915H410.14ZM420.907 266.915H425.015V262.808H420.907V266.915ZM420.907 277.682V281.79H425.015V277.682H420.907ZM410.14 277.682H406.033V281.79H410.14V277.682ZM410.14 256.148V252.04H406.033V256.148H410.14ZM420.907 256.148H425.015V252.04H420.907V256.148ZM420.907 266.915V271.022H425.015V266.915H420.907ZM410.14 266.915H406.033V271.022H410.14V266.915ZM399.373 234.613V230.506H395.265V234.613H399.373ZM410.14 234.613H414.248V230.506H410.14V234.613ZM410.14 245.38V249.488H414.248V245.38H410.14ZM399.373 245.38H395.265V249.488H399.373V245.38ZM399.373 223.846V219.738H395.265V223.846H399.373ZM410.14 223.846H414.248V219.738H410.14V223.846ZM410.14 234.613V238.721H414.248V234.613H410.14ZM399.373 234.613H395.265V238.721H399.373V234.613ZM399.373 213.079V208.971H395.265V213.079H399.373ZM410.14 213.079H414.248V208.971H410.14V213.079ZM410.14 223.846V227.953H414.248V223.846H410.14ZM399.373 223.846H395.265V227.953H399.373V223.846ZM399.373 202.311V198.204H395.265V202.311H399.373ZM410.14 202.311H414.248V198.204H410.14V202.311ZM410.14 213.079V217.186H414.248V213.079H410.14ZM399.373 213.079H395.265V217.186H399.373V213.079ZM399.373 191.544V195.651H410.14V191.544V187.437H399.373V191.544ZM410.14 191.544H406.033V202.311H410.14H414.248V191.544H410.14ZM410.14 202.311V198.204H399.373V202.311V206.419H410.14V202.311ZM399.373 202.311H403.48V191.544H399.373H395.265V202.311H399.373ZM410.14 191.544V195.651H420.907V191.544V187.437H410.14V191.544ZM420.907 191.544H416.8V202.311H420.907H425.015V191.544H420.907ZM420.907 202.311V198.204H410.14V202.311V206.419H420.907V202.311ZM410.14 202.311H414.248V191.544H410.14H406.033V202.311H410.14ZM410.14 202.311V206.419H420.907V202.311V198.204H410.14V202.311ZM420.907 202.311H416.8V213.079H420.907H425.015V202.311H420.907ZM420.907 213.079V208.971H410.14V213.079V217.186H420.907V213.079ZM410.14 213.079H414.248V202.311H410.14H406.033V213.079H410.14ZM410.14 213.079V217.186H420.907V213.079V208.971H410.14V213.079ZM420.907 213.079H416.8V223.846H420.907H425.015V213.079H420.907ZM420.907 223.846V219.738H410.14V223.846V227.953H420.907V223.846ZM410.14 223.846H414.248V213.079H410.14H406.033V223.846H410.14ZM410.14 223.846V227.953H420.907V223.846V219.738H410.14V223.846ZM420.907 223.846H416.8V234.613H420.907H425.015V223.846H420.907ZM420.907 234.613V230.506H410.14V234.613V238.721H420.907V234.613ZM410.14 234.613H414.248V223.846H410.14H406.033V234.613H410.14ZM410.14 234.613V238.721H420.907V234.613V230.506H410.14V234.613ZM420.907 234.613H416.8V245.38H420.907H425.015V234.613H420.907ZM420.907 245.38V241.273H410.14V245.38V249.488H420.907V245.38ZM410.14 245.38H414.248V234.613H410.14H406.033V245.38H410.14ZM410.14 245.38V249.488H420.907V245.38V241.273H410.14V245.38ZM420.907 245.38H416.8V256.148H420.907H425.015V245.38H420.907ZM420.907 256.148V252.04H410.14V256.148V260.255H420.907V256.148ZM410.14 256.148H414.248V245.38H410.14H406.033V256.148H410.14ZM399.373 245.38V249.488H410.14V245.38V241.273H399.373V245.38ZM410.14 245.38H406.033V256.148H410.14H414.248V245.38H410.14ZM410.14 256.148V252.04H399.373V256.148V260.255H410.14V256.148ZM399.373 256.148H403.48V245.38H399.373H395.265V256.148H399.373ZM399.373 256.148V260.255H410.14V256.148V252.04H399.373V256.148ZM410.14 256.148H406.033V266.915H410.14H414.248V256.148H410.14ZM410.14 266.915V262.808H399.373V266.915V271.022H410.14V266.915ZM399.373 266.915H403.48V256.148H399.373H395.265V266.915H399.373ZM399.373 266.915V271.022H410.14V266.915V262.808H399.373V266.915ZM410.14 266.915H406.033V277.682H410.14H414.248V266.915H410.14ZM410.14 277.682V273.575H399.373V277.682V281.79H410.14V277.682ZM399.373 277.682H403.48V266.915H399.373H395.265V277.682H399.373ZM399.373 277.682V281.79H410.14V277.682V273.575H399.373V277.682ZM410.14 277.682H406.033V288.45H410.14H414.248V277.682H410.14ZM410.14 288.45V284.342H399.373V288.45V292.557H410.14V288.45ZM399.373 288.45H403.48V277.682H399.373H395.265V288.45H399.373ZM399.373 288.45V292.557H410.14V288.45V284.342H399.373V288.45ZM410.14 288.45H406.033V299.217H410.14H414.248V288.45H410.14ZM410.14 299.217V295.109H399.373V299.217V303.324H410.14V299.217ZM399.373 299.217H403.48V288.45H399.373H395.265V299.217H399.373ZM410.14 288.45V292.557H420.907V288.45V284.342H410.14V288.45ZM420.907 288.45H416.8V299.217H420.907H425.015V288.45H420.907ZM420.907 299.217V295.109H410.14V299.217V303.324H420.907V299.217ZM410.14 299.217H414.248V288.45H410.14H406.033V299.217H410.14ZM410.14 277.682V281.79H420.907V277.682V273.575H410.14V277.682ZM420.907 277.682H416.8V288.45H420.907H425.015V277.682H420.907ZM420.907 288.45V284.342H410.14V288.45V292.557H420.907V288.45ZM410.14 288.45H414.248V277.682H410.14H406.033V288.45H410.14ZM410.14 266.915V271.022H420.907V266.915V262.808H410.14V266.915ZM420.907 266.915H416.8V277.682H420.907H425.015V266.915H420.907ZM420.907 277.682V273.575H410.14V277.682V281.79H420.907V277.682ZM410.14 277.682H414.248V266.915H410.14H406.033V277.682H410.14ZM410.14 256.148V260.255H420.907V256.148V252.04H410.14V256.148ZM420.907 256.148H416.8V266.915H420.907H425.015V256.148H420.907ZM420.907 266.915V262.808H410.14V266.915V271.022H420.907V266.915ZM410.14 266.915H414.248V256.148H410.14H406.033V266.915H410.14ZM399.373 234.613V238.721H410.14V234.613V230.506H399.373V234.613ZM410.14 234.613H406.033V245.38H410.14H414.248V234.613H410.14ZM410.14 245.38V241.273H399.373V245.38V249.488H410.14V245.38ZM399.373 245.38H403.48V234.613H399.373H395.265V245.38H399.373ZM399.373 223.846V227.953H410.14V223.846V219.738H399.373V223.846ZM410.14 223.846H406.033V234.613H410.14H414.248V223.846H410.14ZM410.14 234.613V230.506H399.373V234.613V238.721H410.14V234.613ZM399.373 234.613H403.48V223.846H399.373H395.265V234.613H399.373ZM399.373 213.079V217.186H410.14V213.079V208.971H399.373V213.079ZM410.14 213.079H406.033V223.846H410.14H414.248V213.079H410.14ZM410.14 223.846V219.738H399.373V223.846V227.953H410.14V223.846ZM399.373 223.846H403.48V213.079H399.373H395.265V223.846H399.373ZM399.373 202.311V206.419H410.14V202.311V198.204H399.373V202.311ZM410.14 202.311H406.033V213.079H410.14H414.248V202.311H410.14ZM410.14 213.079V208.971H399.373V213.079V217.186H410.14V213.079ZM399.373 213.079H403.48V202.311H399.373H395.265V213.079H399.373Z" fill="#A5BAFC" mask="url(#path-9-outside-2_1_2)"/>
</svg>
