<svg width="512" height="512" viewBox="0 0 512 512" fill="none" xmlns="http://www.w3.org/2000/svg">
<rect width="512" height="512" rx="128" fill="white"/>
<path d="M254.702 76.9373C163.312 76.9373 169.019 116.57 169.019 116.57L169.121 157.628H256.333V169.956H134.481C134.481 169.956 76 163.324 76 255.537C76 347.751 127.043 344.482 127.043 344.482H157.506V301.691C157.506 301.691 155.864 250.648 207.735 250.648H294.232C294.232 250.648 342.83 251.433 342.83 203.68V124.72C342.83 124.72 350.208 76.9373 254.702 76.9373ZM206.613 104.548C215.291 104.548 222.304 111.561 222.304 120.237C222.304 128.914 215.291 135.928 206.613 135.928C197.937 135.928 190.924 128.914 190.924 120.237C190.924 111.561 197.937 104.548 206.613 104.548Z" fill="url(#paint0_linear_4377_15)"/>
<path d="M257.298 435.063C348.687 435.063 342.981 395.432 342.981 395.432L342.879 354.372H255.667V342.044H377.52C377.52 342.044 436 348.677 436 256.463C436 164.249 384.957 167.52 384.957 167.52H354.494V210.311C354.494 210.311 356.136 261.354 304.265 261.354H217.768C217.768 261.354 169.169 260.567 169.169 308.321V387.28C169.169 387.28 161.791 435.063 257.298 435.063ZM305.387 407.453C296.709 407.453 289.696 400.44 289.696 391.764C289.696 383.086 296.709 376.073 305.387 376.073C314.063 376.073 321.077 383.086 321.077 391.764C321.077 400.44 314.063 407.453 305.387 407.453Z" fill="url(#paint1_linear_4377_15)"/>
<defs>
<linearGradient id="paint0_linear_4377_15" x1="110.596" y1="109.15" x2="288.999" y2="285.773" gradientUnits="userSpaceOnUse">
<stop stop-color="#387EB8"/>
<stop offset="1" stop-color="#366994"/>
</linearGradient>
<linearGradient id="paint1_linear_4377_15" x1="220.101" y1="222.567" x2="411.686" y2="403.678" gradientUnits="userSpaceOnUse">
<stop stop-color="#FFE052"/>
<stop offset="1" stop-color="#FFC331"/>
</linearGradient>
</defs>
</svg>
