<svg width="1080" height="363" viewBox="0 0 1080 363" fill="none" xmlns="http://www.w3.org/2000/svg">
<rect x="10.125" y="20.25" width="1049.2" height="251.859" fill="url(#paint0_linear_1_2)"/>
<path d="M0 181.125V361.687H27.7312H55.4062L64.9687 359.719C70.2562 358.594 77.5687 357.075 81.2812 356.287C84.9937 355.5 90.3375 354.375 93.0937 353.812C95.9062 353.194 101.194 352.069 104.906 351.281C108.619 350.437 114.581 349.2 118.125 348.469C121.669 347.737 128.25 346.331 132.75 345.375C137.25 344.419 144.45 342.9 148.781 342C153.112 341.1 159.694 339.694 163.406 338.906C167.119 338.119 175.612 336.319 182.25 334.969C198.337 331.65 206.269 330.019 215.719 327.937C220.05 326.981 225.45 325.856 227.756 325.406C230.062 324.956 232.312 324.45 232.875 324.281C233.381 324.112 234.281 324.337 234.9 324.787C235.912 325.575 235.969 326.587 236.25 343.519L236.531 361.406L324.394 361.575L412.256 361.687L417.487 359.775C423.225 357.694 432.562 354.037 441.281 350.494C449.55 347.175 475.425 336.994 485.156 333.225C489.825 331.481 494.775 329.569 496.181 329.006C500.456 327.375 500.287 326.869 500.625 345.206L500.906 361.406H542.531C586.744 361.406 586.237 361.406 601.031 358.594C606.656 357.469 614.137 356.231 620.719 355.275C623.531 354.825 635.681 352.8 647.719 350.775C659.812 348.694 671.794 346.669 674.437 346.219C686.306 344.25 689.681 343.687 694.406 342.844C697.219 342.337 701.662 341.55 704.419 341.1C710.044 340.2 717.469 338.962 724.781 337.725C727.594 337.275 732.15 336.487 734.906 336.037C737.719 335.587 741.6 334.969 743.625 334.631C749.531 333.787 783.956 327.994 789.187 327.037C791.831 326.531 796.275 325.8 799.031 325.406C801.844 324.956 806.062 324.337 808.481 324C811.856 323.494 813.037 323.494 813.656 324C814.387 324.619 814.5 327.544 814.5 342.506C814.5 355.612 814.669 360.506 815.175 361.012C816.019 361.856 880.256 361.969 882.9 361.181C883.8 360.9 887.175 360.112 890.437 359.437C893.7 358.762 899.156 357.637 902.531 356.906C905.962 356.175 911.137 355.05 914.062 354.431C928.181 351.394 938.981 349.087 943.594 348.131C950.006 346.781 965.812 343.462 974.25 341.719C983.419 339.75 998.044 336.712 1010.81 334.069C1029.43 330.187 1036.74 328.669 1042.31 327.375C1045.24 326.756 1049.57 325.856 1051.87 325.406C1054.18 324.956 1058.51 324.112 1061.44 323.437C1064.36 322.762 1069.31 321.75 1072.41 321.075C1075.5 320.456 1078.37 319.669 1078.76 319.331C1079.72 318.544 1079.77 2.24996 1078.76 1.23746C1078.26 0.731214 957.544 0.562464 539.044 0.562464H0V181.125ZM196.369 21.2625C201.15 24.4125 225.281 47.8125 232.481 56.3062L235.125 59.4562V110.475C235.125 150.862 234.956 161.437 234.45 161.437C233.269 161.494 219.656 163.35 204.469 165.6C201.375 166.05 196.819 166.669 194.344 167.062C189.844 167.681 182.925 168.694 173.531 170.156C166.05 171.337 154.462 172.969 144 174.375C141.694 174.712 138.15 175.219 136.181 175.556L132.637 176.231L132.919 179.381C133.425 184.275 134.887 194.231 135.337 195.356C135.619 196.087 136.069 196.312 136.912 196.087C138.262 195.75 142.819 195.075 160.031 192.656C163.125 192.206 168.3 191.475 171.562 190.969C184.669 188.944 191.869 187.875 205.594 185.962C219.544 183.994 223.762 183.431 227.25 182.869C229.275 182.531 231.862 182.25 233.044 182.25H235.125V227.25V272.25H122.625H10.125V203.344V134.494L11.9812 134.212C12.9375 134.044 14.7937 133.762 16.0312 133.594C25.0312 132.3 35.1562 130.837 45 129.375C61.5375 126.9 78.75 124.369 84.9375 123.469C107.269 120.319 111.712 119.644 112.05 119.306C112.275 119.137 112.219 117.844 111.937 116.437C111.656 115.031 111.037 110.981 110.475 107.437C109.912 103.894 109.35 100.8 109.181 100.575C109.012 100.35 106.312 100.519 103.219 100.969C90 102.825 84.4312 103.556 71.1562 105.469C63.45 106.594 54.675 107.887 51.75 108.337C48.825 108.731 43.7062 109.462 40.4437 109.912C37.1812 110.419 31.8937 111.15 28.6312 111.656C25.425 112.162 20.7562 112.781 18.2812 113.062C15.8062 113.4 12.9375 113.737 11.9812 113.906L10.125 114.244V67.2187V20.25H102.544C189.45 20.25 195.019 20.3062 196.369 21.2625ZM367.312 111.881C367.312 194.906 367.369 203.512 368.212 203.85C369.619 204.412 386.044 204.244 386.944 203.681C387.675 203.231 387.787 190.631 387.787 111.825L387.844 20.5312L443.7 20.3625L499.5 20.25V126.394V232.594L496.237 236.194C489.769 243.506 464.625 268.144 460.181 271.519C459.506 272.081 440.944 272.194 377.775 272.25H296.325L293.962 270.45C292.725 269.437 291.375 268.369 291.037 268.031C290.7 267.75 287.437 264.656 283.781 261.281C277.537 255.431 273.769 251.719 261.787 239.175C257.175 234.281 256.725 233.662 256.387 231.019C255.881 227.475 255.094 22.3875 255.544 21.15C255.881 20.3625 261.225 20.25 311.625 20.25H367.312V111.881ZM640.912 30.4875C644.681 35.9437 648.956 42.1312 650.419 44.2687C651.937 46.35 655.594 51.6937 658.519 56.0812L663.919 64.125H666.9H669.825L678.769 51.1875C683.662 44.0437 690.131 34.65 693.169 30.2062C696.15 25.8187 699.019 21.7687 699.469 21.2062C700.256 20.3062 703.519 20.25 756.956 20.3625L813.656 20.5312L813.825 79.875C813.937 112.5 813.825 169.144 813.6 205.706L813.262 272.25H762.525H711.787L712.35 268.425C712.631 266.344 713.081 264.544 713.306 264.375C713.475 264.206 713.869 262.519 714.094 260.55C714.319 258.637 714.712 256.95 714.937 256.781C715.162 256.612 715.556 254.925 715.781 253.012C716.006 251.044 716.4 249.187 716.625 248.906C716.85 248.569 717.244 246.937 717.469 245.25C717.694 243.562 718.031 241.875 718.256 241.594C718.425 241.256 718.875 239.4 719.269 237.375C720.169 232.537 721.406 226.462 722.812 219.937C723.487 217.012 724.331 212.962 724.781 210.937C725.231 208.912 725.906 205.65 726.356 203.625C727.594 198.169 728.831 192.6 729.787 187.875C730.237 185.569 731.194 181.237 731.812 178.312C732.431 175.387 733.387 171.056 733.837 168.75C734.625 164.925 735.469 160.875 736.875 154.406C737.156 153.169 737.381 151.987 737.437 151.819C737.437 151.2 734.681 150.356 728.719 149.062C725.625 148.387 722.419 147.6 721.575 147.262C719.494 146.475 718.481 146.981 718.2 148.894C717.862 150.694 715.331 162.225 714.094 167.344C713.644 169.2 712.856 172.631 712.35 174.937C711.9 177.244 711.112 180.675 710.662 182.531C710.269 184.387 709.481 187.819 709.031 190.125C708.525 192.431 707.906 195.075 707.625 196.031C707.344 196.931 706.95 198.731 706.781 199.969C706.556 201.206 706.162 203.006 705.881 203.962C705.544 204.975 705.094 207 704.812 208.462C704.306 211.219 703.462 215.1 701.831 222.187C701.381 224.212 700.706 227.25 700.312 228.937C699.975 230.625 699.3 233.269 698.85 234.787C698.4 236.25 698.062 238.219 698.062 239.119C698.062 239.962 697.837 240.806 697.556 240.975C697.275 241.2 696.881 242.662 696.656 244.294C696.487 245.869 696.037 247.95 695.756 248.906C695.25 250.537 694.181 255.937 692.831 263.362C692.437 265.387 691.987 267.3 691.762 267.525C691.481 267.75 691.312 268.481 691.312 269.212C691.312 272.419 692.662 272.25 667.125 272.25C645.187 272.25 643.556 272.194 643.275 271.237C643.162 270.731 642.825 268.875 642.656 267.187C642.431 265.5 642.037 263.812 641.812 263.531C641.587 263.194 641.194 261.562 640.969 259.875C640.744 258.187 640.35 256.5 640.125 256.219C639.9 255.881 639.506 254.081 639.281 252.112C639.056 250.2 638.719 248.512 638.437 248.344C638.212 248.175 637.819 246.431 637.594 244.406C637.425 242.381 637.031 240.75 636.75 240.75C636.525 240.75 636.131 239.119 635.906 237.094C635.737 235.069 635.344 233.325 635.062 233.156C634.837 233.044 634.444 231.469 634.219 229.725C633.994 227.925 633.6 226.125 633.375 225.619C633.094 225.112 632.587 223.312 632.306 221.625C632.025 219.937 631.35 216.731 630.844 214.594C630.337 212.4 629.606 209.025 629.156 207C627.75 200.644 626.794 196.144 625.781 191.812C625.219 189.506 624.487 186.075 624.094 184.219C623.7 182.362 622.912 178.931 622.406 176.625C621.844 174.319 621.112 170.887 620.719 169.031C620.325 167.175 619.594 164.025 619.144 162C618.694 159.975 617.794 155.925 617.119 153.056C616.444 150.131 615.712 147.487 615.487 147.262C615.262 147.037 611.775 147.6 607.781 148.556C603.731 149.512 599.962 150.412 599.344 150.525C596.644 151.031 596.587 150.694 600.975 171C601.425 173.025 602.325 177.187 603 180.281C603.675 183.375 604.519 187.425 604.969 189.281C605.362 191.137 606.094 194.681 606.6 197.156C608.062 204.075 609.187 209.25 610.031 212.625C610.425 214.312 610.987 216.956 611.156 218.531C611.381 220.05 611.775 221.569 612 221.906C612.225 222.187 612.619 223.987 612.844 225.844C613.069 227.7 613.406 229.444 613.687 229.781C613.912 230.062 614.306 231.862 614.531 233.719C614.756 235.575 615.094 237.319 615.375 237.656C615.6 237.937 615.994 239.737 616.219 241.594C616.444 243.45 616.781 245.194 617.062 245.531C617.287 245.812 617.794 247.837 618.131 250.031C618.469 252.169 619.256 256.219 619.931 259.031C620.55 261.787 621.281 265.331 621.562 266.906C621.844 268.425 622.237 270.281 622.406 270.956L622.687 272.25H571.894H521.044L520.65 245.7C520.144 206.325 519.525 22.1625 519.919 21.15C520.256 20.3062 525.881 20.25 577.181 20.3625L634.106 20.5312L640.912 30.4875ZM941.625 106.594L941.906 192.656L951.581 192.825L961.312 192.937L961.425 157.95L961.594 122.906L1010.42 122.737L1059.19 122.625V163.575C1059.19 186.131 1059.02 219.769 1058.79 238.387L1058.46 272.25H946.519H834.637L834.806 255.544C834.919 246.319 834.75 190.012 834.525 130.387C834.244 70.8187 834.187 21.6562 834.356 21.15C834.694 20.3062 839.756 20.25 888.019 20.3625L941.344 20.5312L941.625 106.594Z" fill="url(#paint1_linear_1_2)"/>
<defs>
<linearGradient id="paint0_linear_1_2" x1="534.727" y1="20.25" x2="534.727" y2="272.109" gradientUnits="userSpaceOnUse">
<stop offset="0.9999" stop-color="white"/>
<stop offset="1" stop-color="#FF0069"/>
</linearGradient>
<linearGradient id="paint1_linear_1_2" x1="539.75" y1="0.562469" x2="539.75" y2="361.713" gradientUnits="userSpaceOnUse">
<stop stop-color="#FF0069"/>
<stop offset="1" stop-color="#8A2BE2"/>
</linearGradient>
</defs>
</svg>
